<svg width="208" height="96" viewBox="0 0 208 96" fill="none" xmlns="http://www.w3.org/2000/svg">
<path d="M6.04688 7.01465H2.80371L2.78613 5.65234H5.73047C6.2168 5.65234 6.6416 5.57031 7.00488 5.40625C7.36816 5.24219 7.64941 5.00781 7.84863 4.70312C8.05371 4.39258 8.15625 4.02344 8.15625 3.5957C8.15625 3.12695 8.06543 2.74609 7.88379 2.45312C7.70801 2.1543 7.43555 1.9375 7.06641 1.80273C6.70312 1.66211 6.24023 1.5918 5.67773 1.5918H3.18164V13H1.48535V0.203125H5.67773C6.33398 0.203125 6.91992 0.270508 7.43555 0.405273C7.95117 0.53418 8.3877 0.739258 8.74512 1.02051C9.1084 1.2959 9.38379 1.64746 9.57129 2.0752C9.75879 2.50293 9.85254 3.01562 9.85254 3.61328C9.85254 4.14062 9.71777 4.61816 9.44824 5.0459C9.17871 5.46777 8.80371 5.81348 8.32324 6.08301C7.84863 6.35254 7.29199 6.52539 6.65332 6.60156L6.04688 7.01465ZM5.96777 13H2.13574L3.09375 11.6201H5.96777C6.50684 11.6201 6.96387 11.5264 7.33887 11.3389C7.71973 11.1514 8.00977 10.8877 8.20898 10.5479C8.4082 10.2021 8.50781 9.79492 8.50781 9.32617C8.50781 8.85156 8.42285 8.44141 8.25293 8.0957C8.08301 7.75 7.81641 7.4834 7.45312 7.2959C7.08984 7.1084 6.62109 7.01465 6.04688 7.01465H3.62988L3.64746 5.65234H6.95215L7.3125 6.14453C7.92773 6.19727 8.44922 6.37305 8.87695 6.67188C9.30469 6.96484 9.62988 7.33984 9.85254 7.79688C10.0811 8.25391 10.1953 8.75781 10.1953 9.30859C10.1953 10.1055 10.0195 10.7793 9.66797 11.3301C9.32227 11.875 8.83301 12.291 8.2002 12.5781C7.56738 12.8594 6.82324 13 5.96777 13ZM23.0927 6.19727V7.00586C23.0927 7.9668 22.9726 8.82812 22.7324 9.58984C22.4921 10.3516 22.1464 10.999 21.6953 11.5322C21.2441 12.0654 20.7021 12.4727 20.0693 12.7539C19.4423 13.0352 18.7392 13.1758 17.9599 13.1758C17.2041 13.1758 16.5097 13.0352 15.8769 12.7539C15.25 12.4727 14.705 12.0654 14.2421 11.5322C13.7851 10.999 13.4306 10.3516 13.1787 9.58984C12.9267 8.82812 12.8007 7.9668 12.8007 7.00586V6.19727C12.8007 5.23633 12.9238 4.37793 13.1699 3.62207C13.4218 2.86035 13.7763 2.21289 14.2334 1.67969C14.6904 1.14063 15.2324 0.730469 15.8593 0.449219C16.4921 0.167969 17.1865 0.0273438 17.9423 0.0273438C18.7216 0.0273438 19.4248 0.167969 20.0517 0.449219C20.6845 0.730469 21.2265 1.14063 21.6777 1.67969C22.1347 2.21289 22.4834 2.86035 22.7236 3.62207C22.9697 4.37793 23.0927 5.23633 23.0927 6.19727ZM21.414 7.00586V6.17969C21.414 5.41797 21.3349 4.74414 21.1767 4.1582C21.0244 3.57227 20.7988 3.08008 20.5 2.68164C20.2011 2.2832 19.8349 1.98145 19.4013 1.77637C18.9736 1.57129 18.4873 1.46875 17.9423 1.46875C17.415 1.46875 16.9375 1.57129 16.5097 1.77637C16.0879 1.98145 15.7246 2.2832 15.4199 2.68164C15.1211 3.08008 14.8896 3.57227 14.7255 4.1582C14.5615 4.74414 14.4795 5.41797 14.4795 6.17969V7.00586C14.4795 7.77344 14.5615 8.45312 14.7255 9.04492C14.8896 9.63086 15.124 10.126 15.4287 10.5303C15.7392 10.9287 16.1054 11.2305 16.5273 11.4355C16.955 11.6406 17.4326 11.7432 17.9599 11.7432C18.5107 11.7432 19 11.6406 19.4277 11.4355C19.8554 11.2305 20.2158 10.9287 20.5087 10.5303C20.8076 10.126 21.0332 9.63086 21.1855 9.04492C21.3379 8.45312 21.414 7.77344 21.414 7.00586ZM36.0253 6.19727V7.00586C36.0253 7.9668 35.9052 8.82812 35.665 9.58984C35.4247 10.3516 35.079 10.999 34.6279 11.5322C34.1767 12.0654 33.6347 12.4727 33.0019 12.7539C32.3749 13.0352 31.6718 13.1758 30.8925 13.1758C30.1366 13.1758 29.4423 13.0352 28.8095 12.7539C28.1825 12.4727 27.6376 12.0654 27.1747 11.5322C26.7177 10.999 26.3632 10.3516 26.1112 9.58984C25.8593 8.82812 25.7333 7.9668 25.7333 7.00586V6.19727C25.7333 5.23633 25.8564 4.37793 26.1025 3.62207C26.3544 2.86035 26.7089 2.21289 27.1659 1.67969C27.623 1.14063 28.165 0.730469 28.7919 0.449219C29.4247 0.167969 30.1191 0.0273438 30.8749 0.0273438C31.6542 0.0273438 32.3573 0.167969 32.9843 0.449219C33.6171 0.730469 34.1591 1.14063 34.6103 1.67969C35.0673 2.21289 35.4159 2.86035 35.6562 3.62207C35.9023 4.37793 36.0253 5.23633 36.0253 6.19727ZM34.3466 7.00586V6.17969C34.3466 5.41797 34.2675 4.74414 34.1093 4.1582C33.957 3.57227 33.7314 3.08008 33.4325 2.68164C33.1337 2.2832 32.7675 1.98145 32.3339 1.77637C31.9062 1.57129 31.4198 1.46875 30.8749 1.46875C30.3476 1.46875 29.87 1.57129 29.4423 1.77637C29.0204 1.98145 28.6571 2.2832 28.3525 2.68164C28.0536 3.08008 27.8222 3.57227 27.6581 4.1582C27.4941 4.74414 27.412 5.41797 27.412 6.17969V7.00586C27.412 7.77344 27.4941 8.45312 27.6581 9.04492C27.8222 9.63086 28.0566 10.126 28.3612 10.5303C28.6718 10.9287 29.038 11.2305 29.4599 11.4355C29.8876 11.6406 30.3652 11.7432 30.8925 11.7432C31.4433 11.7432 31.9325 11.6406 32.3603 11.4355C32.788 11.2305 33.1484 10.9287 33.4413 10.5303C33.7402 10.126 33.9657 9.63086 34.1181 9.04492C34.2704 8.45312 34.3466 7.77344 34.3466 7.00586ZM45.9257 9.76562C45.9257 9.4668 45.8788 9.20312 45.785 8.97461C45.6971 8.74023 45.5389 8.5293 45.3104 8.3418C45.0878 8.1543 44.7772 7.97559 44.3788 7.80566C43.9862 7.63574 43.4882 7.46289 42.8846 7.28711C42.2518 7.09961 41.6805 6.8916 41.1708 6.66309C40.661 6.42871 40.2245 6.16211 39.8612 5.86328C39.4979 5.56445 39.2196 5.22168 39.0262 4.83496C38.8329 4.44824 38.7362 4.00586 38.7362 3.50781C38.7362 3.00977 38.8387 2.5498 39.0438 2.12793C39.2489 1.70605 39.5419 1.33984 39.9227 1.0293C40.3095 0.712891 40.7694 0.466797 41.3026 0.291016C41.8358 0.115234 42.4305 0.0273438 43.0868 0.0273438C44.0477 0.0273438 44.8622 0.211914 45.5302 0.581055C46.204 0.944336 46.7167 1.42188 47.0682 2.01367C47.4198 2.59961 47.5956 3.22656 47.5956 3.89453H45.9081C45.9081 3.41406 45.8055 2.98926 45.6005 2.62012C45.3954 2.24512 45.0848 1.95215 44.6688 1.74121C44.2528 1.52441 43.7255 1.41602 43.0868 1.41602C42.4833 1.41602 41.9852 1.50684 41.5927 1.68848C41.2001 1.87012 40.9071 2.11621 40.7137 2.42676C40.5262 2.7373 40.4325 3.0918 40.4325 3.49023C40.4325 3.75977 40.4882 4.00586 40.5995 4.22852C40.7167 4.44531 40.8954 4.64746 41.1356 4.83496C41.3817 5.02246 41.6923 5.19531 42.0673 5.35352C42.4481 5.51172 42.9022 5.66406 43.4296 5.81055C44.1561 6.01562 44.7831 6.24414 45.3104 6.49609C45.8378 6.74805 46.2714 7.03223 46.6112 7.34863C46.9569 7.65918 47.2118 8.01367 47.3759 8.41211C47.5458 8.80469 47.6307 9.25 47.6307 9.74805C47.6307 10.2695 47.5253 10.7412 47.3143 11.1631C47.1034 11.585 46.8016 11.9453 46.4091 12.2441C46.0165 12.543 45.5448 12.7744 44.994 12.9385C44.4491 13.0967 43.8397 13.1758 43.1659 13.1758C42.5741 13.1758 41.9911 13.0938 41.4169 12.9297C40.8485 12.7656 40.33 12.5195 39.8612 12.1914C39.3983 11.8633 39.0262 11.459 38.745 10.9785C38.4696 10.4922 38.3319 9.92969 38.3319 9.29102H40.0194C40.0194 9.73047 40.1044 10.1084 40.2743 10.4248C40.4442 10.7354 40.6757 10.9932 40.9686 11.1982C41.2675 11.4033 41.6044 11.5557 41.9794 11.6553C42.3602 11.749 42.7557 11.7959 43.1659 11.7959C43.7577 11.7959 44.2587 11.7139 44.6688 11.5498C45.079 11.3857 45.3895 11.1514 45.6005 10.8467C45.8173 10.542 45.9257 10.1816 45.9257 9.76562ZM55.0614 0.203125V13H53.3914V0.203125H55.0614ZM59.1746 0.203125V1.5918H49.287V0.203125H59.1746ZM66.8552 0.203125L70.1775 6.62793L73.5086 0.203125H75.4334L71.0212 8.21875V13H69.325V8.21875L64.9128 0.203125H66.8552ZM87.2058 6.19727V7.00586C87.2058 7.9668 87.0857 8.82812 86.8454 9.58984C86.6052 10.3516 86.2595 10.999 85.8083 11.5322C85.3571 12.0654 84.8152 12.4727 84.1823 12.7539C83.5554 13.0352 82.8523 13.1758 82.073 13.1758C81.3171 13.1758 80.6228 13.0352 79.99 12.7539C79.363 12.4727 78.8181 12.0654 78.3552 11.5322C77.8982 10.999 77.5437 10.3516 77.2917 9.58984C77.0398 8.82812 76.9138 7.9668 76.9138 7.00586V6.19727C76.9138 5.23633 77.0368 4.37793 77.2829 3.62207C77.5349 2.86035 77.8894 2.21289 78.3464 1.67969C78.8034 1.14063 79.3454 0.730469 79.9724 0.449219C80.6052 0.167969 81.2995 0.0273438 82.0554 0.0273438C82.8347 0.0273438 83.5378 0.167969 84.1648 0.449219C84.7976 0.730469 85.3396 1.14063 85.7907 1.67969C86.2478 2.21289 86.5964 2.86035 86.8366 3.62207C87.0827 4.37793 87.2058 5.23633 87.2058 6.19727ZM85.5271 7.00586V6.17969C85.5271 5.41797 85.448 4.74414 85.2898 4.1582C85.1374 3.57227 84.9118 3.08008 84.613 2.68164C84.3142 2.2832 83.948 1.98145 83.5144 1.77637C83.0866 1.57129 82.6003 1.46875 82.0554 1.46875C81.528 1.46875 81.0505 1.57129 80.6228 1.77637C80.2009 1.98145 79.8376 2.2832 79.5329 2.68164C79.2341 3.08008 79.0027 3.57227 78.8386 4.1582C78.6745 4.74414 78.5925 5.41797 78.5925 6.17969V7.00586C78.5925 7.77344 78.6745 8.45312 78.8386 9.04492C79.0027 9.63086 79.237 10.126 79.5417 10.5303C79.8523 10.9287 80.2185 11.2305 80.6404 11.4355C81.0681 11.6406 81.5456 11.7432 82.073 11.7432C82.6237 11.7432 83.113 11.6406 83.5407 11.4355C83.9685 11.2305 84.3288 10.9287 84.6218 10.5303C84.9206 10.126 85.1462 9.63086 85.2986 9.04492C85.4509 8.45312 85.5271 7.77344 85.5271 7.00586ZM97.6071 0.203125H99.2946V8.86035C99.2946 9.82129 99.0807 10.6211 98.653 11.2598C98.2253 11.8984 97.6569 12.3789 96.9479 12.7012C96.2448 13.0176 95.4802 13.1758 94.654 13.1758C93.7868 13.1758 93.0016 13.0176 92.2985 12.7012C91.6012 12.3789 91.0475 11.8984 90.6374 11.2598C90.2331 10.6211 90.0309 9.82129 90.0309 8.86035V0.203125H91.7096V8.86035C91.7096 9.52832 91.8327 10.0791 92.0788 10.5127C92.3249 10.9463 92.6677 11.2686 93.1071 11.4795C93.5524 11.6904 94.068 11.7959 94.654 11.7959C95.2458 11.7959 95.7614 11.6904 96.2009 11.4795C96.6462 11.2686 96.9919 10.9463 97.238 10.5127C97.4841 10.0791 97.6071 9.52832 97.6071 8.86035V0.203125ZM102.498 0.203125H106.734C107.695 0.203125 108.506 0.349609 109.169 0.642578C109.837 0.935547 110.343 1.36914 110.689 1.94336C111.041 2.51172 111.216 3.21191 111.216 4.04395C111.216 4.62988 111.096 5.16602 110.856 5.65234C110.622 6.13281 110.282 6.54297 109.837 6.88281C109.397 7.2168 108.87 7.46582 108.255 7.62988L107.78 7.81445H103.798L103.781 6.43457H106.787C107.396 6.43457 107.903 6.3291 108.307 6.11816C108.712 5.90137 109.016 5.61133 109.221 5.24805C109.426 4.88477 109.529 4.4834 109.529 4.04395C109.529 3.55176 109.432 3.12109 109.239 2.75195C109.046 2.38281 108.741 2.09863 108.325 1.89941C107.915 1.69434 107.384 1.5918 106.734 1.5918H104.194V13H102.498V0.203125ZM109.977 13L106.866 7.19922L108.632 7.19043L111.788 12.8945V13H109.977ZM123.696 7.01465H120.453L120.435 5.65234H123.379C123.866 5.65234 124.291 5.57031 124.654 5.40625C125.017 5.24219 125.298 5.00781 125.498 4.70312C125.703 4.39258 125.805 4.02344 125.805 3.5957C125.805 3.12695 125.714 2.74609 125.533 2.45312C125.357 2.1543 125.085 1.9375 124.715 1.80273C124.352 1.66211 123.889 1.5918 123.327 1.5918H120.831V13H119.134V0.203125H123.327C123.983 0.203125 124.569 0.270508 125.085 0.405273C125.6 0.53418 126.037 0.739258 126.394 1.02051C126.757 1.2959 127.033 1.64746 127.22 2.0752C127.408 2.50293 127.502 3.01562 127.502 3.61328C127.502 4.14062 127.367 4.61816 127.097 5.0459C126.828 5.46777 126.453 5.81348 125.972 6.08301C125.498 6.35254 124.941 6.52539 124.302 6.60156L123.696 7.01465ZM123.617 13H119.785L120.743 11.6201H123.617C124.156 11.6201 124.613 11.5264 124.988 11.3389C125.369 11.1514 125.659 10.8877 125.858 10.5479C126.057 10.2021 126.157 9.79492 126.157 9.32617C126.157 8.85156 126.072 8.44141 125.902 8.0957C125.732 7.75 125.465 7.4834 125.102 7.2959C124.739 7.1084 124.27 7.01465 123.696 7.01465H121.279L121.296 5.65234H124.601L124.961 6.14453C125.577 6.19727 126.098 6.37305 126.526 6.67188C126.954 6.96484 127.279 7.33984 127.502 7.79688C127.73 8.25391 127.844 8.75781 127.844 9.30859C127.844 10.1055 127.669 10.7793 127.317 11.3301C126.971 11.875 126.482 12.291 125.849 12.5781C125.216 12.8594 124.472 13 123.617 13ZM138.21 0.203125H139.898V8.86035C139.898 9.82129 139.684 10.6211 139.256 11.2598C138.829 11.8984 138.26 12.3789 137.551 12.7012C136.848 13.0176 136.084 13.1758 135.257 13.1758C134.39 13.1758 133.605 13.0176 132.902 12.7012C132.205 12.3789 131.651 11.8984 131.241 11.2598C130.836 10.6211 130.634 9.82129 130.634 8.86035V0.203125H132.313V8.86035C132.313 9.52832 132.436 10.0791 132.682 10.5127C132.928 10.9463 133.271 11.2686 133.71 11.4795C134.156 11.6904 134.671 11.7959 135.257 11.7959C135.849 11.7959 136.365 11.6904 136.804 11.4795C137.25 11.2686 137.595 10.9463 137.841 10.5127C138.087 10.0791 138.21 9.52832 138.21 8.86035V0.203125ZM149.921 9.76562C149.921 9.4668 149.874 9.20312 149.781 8.97461C149.693 8.74023 149.535 8.5293 149.306 8.3418C149.083 8.1543 148.773 7.97559 148.374 7.80566C147.982 7.63574 147.484 7.46289 146.88 7.28711C146.248 7.09961 145.676 6.8916 145.166 6.66309C144.657 6.42871 144.22 6.16211 143.857 5.86328C143.494 5.56445 143.215 5.22168 143.022 4.83496C142.829 4.44824 142.732 4.00586 142.732 3.50781C142.732 3.00977 142.834 2.5498 143.04 2.12793C143.245 1.70605 143.538 1.33984 143.918 1.0293C144.305 0.712891 144.765 0.466797 145.298 0.291016C145.832 0.115234 146.426 0.0273438 147.083 0.0273438C148.043 0.0273438 148.858 0.211914 149.526 0.581055C150.2 0.944336 150.712 1.42188 151.064 2.01367C151.416 2.59961 151.591 3.22656 151.591 3.89453H149.904C149.904 3.41406 149.801 2.98926 149.596 2.62012C149.391 2.24512 149.081 1.95215 148.665 1.74121C148.249 1.52441 147.721 1.41602 147.083 1.41602C146.479 1.41602 145.981 1.50684 145.588 1.68848C145.196 1.87012 144.903 2.11621 144.709 2.42676C144.522 2.7373 144.428 3.0918 144.428 3.49023C144.428 3.75977 144.484 4.00586 144.595 4.22852C144.712 4.44531 144.891 4.64746 145.131 4.83496C145.377 5.02246 145.688 5.19531 146.063 5.35352C146.444 5.51172 146.898 5.66406 147.425 5.81055C148.152 6.01562 148.779 6.24414 149.306 6.49609C149.833 6.74805 150.267 7.03223 150.607 7.34863C150.953 7.65918 151.208 8.01367 151.372 8.41211C151.541 8.80469 151.626 9.25 151.626 9.74805C151.626 10.2695 151.521 10.7412 151.31 11.1631C151.099 11.585 150.797 11.9453 150.405 12.2441C150.012 12.543 149.541 12.7744 148.99 12.9385C148.445 13.0967 147.835 13.1758 147.162 13.1758C146.57 13.1758 145.987 13.0938 145.413 12.9297C144.844 12.7656 144.326 12.5195 143.857 12.1914C143.394 11.8633 143.022 11.459 142.741 10.9785C142.465 10.4922 142.328 9.92969 142.328 9.29102H144.015C144.015 9.73047 144.1 10.1084 144.27 10.4248C144.44 10.7354 144.671 10.9932 144.964 11.1982C145.263 11.4033 145.6 11.5557 145.975 11.6553C146.356 11.749 146.751 11.7959 147.162 11.7959C147.753 11.7959 148.254 11.7139 148.665 11.5498C149.075 11.3857 149.385 11.1514 149.596 10.8467C149.813 10.542 149.921 10.1816 149.921 9.76562ZM156.148 0.203125V13H154.452V0.203125H156.148ZM169.617 0.203125V13H167.912L161.469 3.12988V13H159.773V0.203125H161.469L167.938 10.0996V0.203125H169.617ZM181.292 11.6201V13H174.516V11.6201H181.292ZM174.859 0.203125V13H173.162V0.203125H174.859ZM180.396 5.70508V7.08496H174.516V5.70508H180.396ZM181.204 0.203125V1.5918H174.516V0.203125H181.204ZM190.753 9.76562C190.753 9.4668 190.706 9.20312 190.613 8.97461C190.525 8.74023 190.367 8.5293 190.138 8.3418C189.915 8.1543 189.605 7.97559 189.206 7.80566C188.814 7.63574 188.316 7.46289 187.712 7.28711C187.079 7.09961 186.508 6.8916 185.998 6.66309C185.489 6.42871 185.052 6.16211 184.689 5.86328C184.326 5.56445 184.047 5.22168 183.854 4.83496C183.66 4.44824 183.564 4.00586 183.564 3.50781C183.564 3.00977 183.666 2.5498 183.871 2.12793C184.076 1.70605 184.369 1.33984 184.75 1.0293C185.137 0.712891 185.597 0.466797 186.13 0.291016C186.663 0.115234 187.258 0.0273438 187.914 0.0273438C188.875 0.0273438 189.69 0.211914 190.358 0.581055C191.032 0.944336 191.544 1.42188 191.896 2.01367C192.247 2.59961 192.423 3.22656 192.423 3.89453H190.736C190.736 3.41406 190.633 2.98926 190.428 2.62012C190.223 2.24512 189.912 1.95215 189.496 1.74121C189.08 1.52441 188.553 1.41602 187.914 1.41602C187.311 1.41602 186.813 1.50684 186.42 1.68848C186.028 1.87012 185.735 2.11621 185.541 2.42676C185.354 2.7373 185.26 3.0918 185.26 3.49023C185.26 3.75977 185.316 4.00586 185.427 4.22852C185.544 4.44531 185.723 4.64746 185.963 4.83496C186.209 5.02246 186.52 5.19531 186.895 5.35352C187.276 5.51172 187.73 5.66406 188.257 5.81055C188.984 6.01562 189.611 6.24414 190.138 6.49609C190.665 6.74805 191.099 7.03223 191.439 7.34863C191.785 7.65918 192.039 8.01367 192.203 8.41211C192.373 8.80469 192.458 9.25 192.458 9.74805C192.458 10.2695 192.353 10.7412 192.142 11.1631C191.931 11.585 191.629 11.9453 191.237 12.2441C190.844 12.543 190.372 12.7744 189.822 12.9385C189.277 13.0967 188.667 13.1758 187.993 13.1758C187.402 13.1758 186.819 13.0938 186.244 12.9297C185.676 12.7656 185.158 12.5195 184.689 12.1914C184.226 11.8633 183.854 11.459 183.573 10.9785C183.297 10.4922 183.16 9.92969 183.16 9.29102H184.847C184.847 9.73047 184.932 10.1084 185.102 10.4248C185.272 10.7354 185.503 10.9932 185.796 11.1982C186.095 11.4033 186.432 11.5557 186.807 11.6553C187.188 11.749 187.583 11.7959 187.993 11.7959C188.585 11.7959 189.086 11.7139 189.496 11.5498C189.907 11.3857 190.217 11.1514 190.428 10.8467C190.645 10.542 190.753 10.1816 190.753 9.76562ZM201.981 9.76562C201.981 9.4668 201.934 9.20312 201.84 8.97461C201.752 8.74023 201.594 8.5293 201.366 8.3418C201.143 8.1543 200.832 7.97559 200.434 7.80566C200.041 7.63574 199.543 7.46289 198.94 7.28711C198.307 7.09961 197.736 6.8916 197.226 6.66309C196.716 6.42871 196.28 6.16211 195.916 5.86328C195.553 5.56445 195.275 5.22168 195.081 4.83496C194.888 4.44824 194.791 4.00586 194.791 3.50781C194.791 3.00977 194.894 2.5498 195.099 2.12793C195.304 1.70605 195.597 1.33984 195.978 1.0293C196.365 0.712891 196.824 0.466797 197.358 0.291016C197.891 0.115234 198.486 0.0273438 199.142 0.0273438C200.103 0.0273438 200.917 0.211914 201.585 0.581055C202.259 0.944336 202.772 1.42188 203.123 2.01367C203.475 2.59961 203.651 3.22656 203.651 3.89453H201.963C201.963 3.41406 201.861 2.98926 201.656 2.62012C201.45 2.24512 201.14 1.95215 200.724 1.74121C200.308 1.52441 199.781 1.41602 199.142 1.41602C198.538 1.41602 198.04 1.50684 197.648 1.68848C197.255 1.87012 196.962 2.11621 196.769 2.42676C196.581 2.7373 196.488 3.0918 196.488 3.49023C196.488 3.75977 196.543 4.00586 196.655 4.22852C196.772 4.44531 196.95 4.64746 197.191 4.83496C197.437 5.02246 197.747 5.19531 198.122 5.35352C198.503 5.51172 198.957 5.66406 199.485 5.81055C200.211 6.01562 200.838 6.24414 201.366 6.49609C201.893 6.74805 202.326 7.03223 202.666 7.34863C203.012 7.65918 203.267 8.01367 203.431 8.41211C203.601 8.80469 203.686 9.25 203.686 9.74805C203.686 10.2695 203.58 10.7412 203.369 11.1631C203.158 11.585 202.857 11.9453 202.464 12.2441C202.072 12.543 201.6 12.7744 201.049 12.9385C200.504 13.0967 199.895 13.1758 199.221 13.1758C198.629 13.1758 198.046 13.0938 197.472 12.9297C196.904 12.7656 196.385 12.5195 195.916 12.1914C195.453 11.8633 195.081 11.459 194.8 10.9785C194.525 10.4922 194.387 9.92969 194.387 9.29102H196.074C196.074 9.73047 196.159 10.1084 196.329 10.4248C196.499 10.7354 196.731 10.9932 197.024 11.1982C197.323 11.4033 197.659 11.5557 198.034 11.6553C198.415 11.749 198.811 11.7959 199.221 11.7959C199.813 11.7959 200.314 11.7139 200.724 11.5498C201.134 11.3857 201.445 11.1514 201.656 10.8467C201.872 10.542 201.981 10.1816 201.981 9.76562ZM207.618 11.0664V12.376C207.618 12.9092 207.484 13.4717 207.214 14.0635C206.945 14.6611 206.567 15.1592 206.08 15.5576L205.157 14.916C205.345 14.6582 205.503 14.3945 205.632 14.125C205.761 13.8613 205.858 13.5859 205.922 13.2988C205.992 13.0176 206.028 12.7188 206.028 12.4023V11.0664H207.618ZM6.04688 27.0146H2.80371L2.78613 25.6523H5.73047C6.2168 25.6523 6.6416 25.5703 7.00488 25.4062C7.36816 25.2422 7.64941 25.0078 7.84863 24.7031C8.05371 24.3926 8.15625 24.0234 8.15625 23.5957C8.15625 23.127 8.06543 22.7461 7.88379 22.4531C7.70801 22.1543 7.43555 21.9375 7.06641 21.8027C6.70312 21.6621 6.24023 21.5918 5.67773 21.5918H3.18164V33H1.48535V20.2031H5.67773C6.33398 20.2031 6.91992 20.2705 7.43555 20.4053C7.95117 20.5342 8.3877 20.7393 8.74512 21.0205C9.1084 21.2959 9.38379 21.6475 9.57129 22.0752C9.75879 22.5029 9.85254 23.0156 9.85254 23.6133C9.85254 24.1406 9.71777 24.6182 9.44824 25.0459C9.17871 25.4678 8.80371 25.8135 8.32324 26.083C7.84863 26.3525 7.29199 26.5254 6.65332 26.6016L6.04688 27.0146ZM5.96777 33H2.13574L3.09375 31.6201H5.96777C6.50684 31.6201 6.96387 31.5264 7.33887 31.3389C7.71973 31.1514 8.00977 30.8877 8.20898 30.5479C8.4082 30.2021 8.50781 29.7949 8.50781 29.3262C8.50781 28.8516 8.42285 28.4414 8.25293 28.0957C8.08301 27.75 7.81641 27.4834 7.45312 27.2959C7.08984 27.1084 6.62109 27.0146 6.04688 27.0146H3.62988L3.64746 25.6523H6.95215L7.3125 26.1445C7.92773 26.1973 8.44922 26.373 8.87695 26.6719C9.30469 26.9648 9.62988 27.3398 9.85254 27.7969C10.0811 28.2539 10.1953 28.7578 10.1953 29.3086C10.1953 30.1055 10.0195 30.7793 9.66797 31.3301C9.32227 31.875 8.83301 32.291 8.2002 32.5781C7.56738 32.8594 6.82324 33 5.96777 33ZM20.5615 20.2031H22.249V28.8604C22.249 29.8213 22.0351 30.6211 21.6074 31.2598C21.1796 31.8984 20.6113 32.3789 19.9023 32.7012C19.1992 33.0176 18.4345 33.1758 17.6084 33.1758C16.7412 33.1758 15.956 33.0176 15.2529 32.7012C14.5556 32.3789 14.0019 31.8984 13.5918 31.2598C13.1875 30.6211 12.9853 29.8213 12.9853 28.8604V20.2031H14.664V28.8604C14.664 29.5283 14.7871 30.0791 15.0332 30.5127C15.2793 30.9463 15.622 31.2686 16.0615 31.4795C16.5068 31.6904 17.0224 31.7959 17.6084 31.7959C18.2002 31.7959 18.7158 31.6904 19.1552 31.4795C19.6005 31.2686 19.9462 30.9463 20.1923 30.5127C20.4384 30.0791 20.5615 29.5283 20.5615 28.8604V20.2031ZM27.2714 20.2031V33H25.5751V20.2031H27.2714ZM38.6571 31.6201V33H32.2587V31.6201H38.6571ZM32.5927 20.2031V33H30.8964V20.2031H32.5927ZM44.6024 33H41.9305L41.9481 31.6201H44.6024C45.5164 31.6201 46.2782 31.4297 46.8875 31.0488C47.4969 30.6621 47.9539 30.123 48.2586 29.4316C48.5692 28.7344 48.7245 27.9199 48.7245 26.9883V26.2061C48.7245 25.4736 48.6366 24.8232 48.4608 24.2549C48.285 23.6807 48.0272 23.1973 47.6873 22.8047C47.3475 22.4062 46.9315 22.1045 46.4393 21.8994C45.953 21.6943 45.3934 21.5918 44.7606 21.5918H41.8778V20.2031H44.7606C45.5985 20.2031 46.3631 20.3438 47.0545 20.625C47.7459 20.9004 48.3407 21.3018 48.8387 21.8291C49.3426 22.3506 49.7293 22.9834 49.9989 23.7275C50.2684 24.4658 50.4032 25.2979 50.4032 26.2236V26.9883C50.4032 27.9141 50.2684 28.749 49.9989 29.4932C49.7293 30.2314 49.3397 30.8613 48.8299 31.3828C48.326 31.9043 47.7166 32.3057 47.0018 32.5869C46.2928 32.8623 45.493 33 44.6024 33ZM42.8358 20.2031V33H41.1395V20.2031H42.8358ZM63.2341 21.3369L58.9978 33H57.2664L62.1443 20.2031H63.2605L63.2341 21.3369ZM66.7849 33L62.5398 21.3369L62.5134 20.2031H63.6297L68.5252 33H66.7849ZM66.5652 28.2627V29.6514H59.3757V28.2627H66.5652ZM79.1501 29.1328L81.6901 20.2031H82.9206L82.2087 23.6748L79.4753 33H78.2536L79.1501 29.1328ZM76.5221 20.2031L78.5436 28.957L79.1501 33H77.9372L74.8346 20.2031H76.5221ZM86.2077 28.9482L88.1852 20.2031H89.8815L86.7878 33H85.5749L86.2077 28.9482ZM83.1052 20.2031L85.5749 29.1328L86.4714 33H85.2497L82.613 23.6748L81.8923 20.2031H83.1052ZM100.432 31.6201V33H93.6559V31.6201H100.432ZM93.9987 20.2031V33H92.3024V20.2031H93.9987ZM99.5358 25.7051V27.085H93.6559V25.7051H99.5358ZM100.344 20.2031V21.5918H93.6559V20.2031H100.344ZM107.634 27.0146H104.391L104.374 25.6523H107.318C107.804 25.6523 108.229 25.5703 108.592 25.4062C108.956 25.2422 109.237 25.0078 109.436 24.7031C109.641 24.3926 109.744 24.0234 109.744 23.5957C109.744 23.127 109.653 22.7461 109.471 22.4531C109.296 22.1543 109.023 21.9375 108.654 21.8027C108.291 21.6621 107.828 21.5918 107.265 21.5918H104.769V33H103.073V20.2031H107.265C107.921 20.2031 108.507 20.2705 109.023 20.4053C109.539 20.5342 109.975 20.7393 110.333 21.0205C110.696 21.2959 110.971 21.6475 111.159 22.0752C111.346 22.5029 111.44 23.0156 111.44 23.6133C111.44 24.1406 111.305 24.6182 111.036 25.0459C110.766 25.4678 110.391 25.8135 109.911 26.083C109.436 26.3525 108.879 26.5254 108.241 26.6016L107.634 27.0146ZM107.555 33H103.723L104.681 31.6201H107.555C108.094 31.6201 108.551 31.5264 108.926 31.3389C109.307 31.1514 109.597 30.8877 109.796 30.5479C109.996 30.2021 110.095 29.7949 110.095 29.3262C110.095 28.8516 110.01 28.4414 109.84 28.0957C109.671 27.75 109.404 27.4834 109.041 27.2959C108.677 27.1084 108.209 27.0146 107.634 27.0146H105.217L105.235 25.6523H108.54L108.9 26.1445C109.515 26.1973 110.037 26.373 110.464 26.6719C110.892 26.9648 111.217 27.3398 111.44 27.7969C111.669 28.2539 111.783 28.7578 111.783 29.3086C111.783 30.1055 111.607 30.7793 111.255 31.3301C110.91 31.875 110.421 32.291 109.788 32.5781C109.155 32.8594 108.411 33 107.555 33ZM121.648 29.7656C121.648 29.4668 121.601 29.2031 121.507 28.9746C121.419 28.7402 121.261 28.5293 121.033 28.3418C120.81 28.1543 120.5 27.9756 120.101 27.8057C119.709 27.6357 119.211 27.4629 118.607 27.2871C117.974 27.0996 117.403 26.8916 116.893 26.6631C116.383 26.4287 115.947 26.1621 115.584 25.8633C115.22 25.5645 114.942 25.2217 114.749 24.835C114.555 24.4482 114.459 24.0059 114.459 23.5078C114.459 23.0098 114.561 22.5498 114.766 22.1279C114.971 21.7061 115.264 21.3398 115.645 21.0293C116.032 20.7129 116.492 20.4668 117.025 20.291C117.558 20.1152 118.153 20.0273 118.809 20.0273C119.77 20.0273 120.585 20.2119 121.253 20.5811C121.926 20.9443 122.439 21.4219 122.791 22.0137C123.142 22.5996 123.318 23.2266 123.318 23.8945H121.63C121.63 23.4141 121.528 22.9893 121.323 22.6201C121.118 22.2451 120.807 21.9521 120.391 21.7412C119.975 21.5244 119.448 21.416 118.809 21.416C118.206 21.416 117.708 21.5068 117.315 21.6885C116.922 21.8701 116.629 22.1162 116.436 22.4268C116.249 22.7373 116.155 23.0918 116.155 23.4902C116.155 23.7598 116.211 24.0059 116.322 24.2285C116.439 24.4453 116.618 24.6475 116.858 24.835C117.104 25.0225 117.415 25.1953 117.79 25.3535C118.17 25.5117 118.625 25.6641 119.152 25.8105C119.878 26.0156 120.505 26.2441 121.033 26.4961C121.56 26.748 121.994 27.0322 122.334 27.3486C122.679 27.6592 122.934 28.0137 123.098 28.4121C123.268 28.8047 123.353 29.25 123.353 29.748C123.353 30.2695 123.248 30.7412 123.037 31.1631C122.826 31.585 122.524 31.9453 122.131 32.2441C121.739 32.543 121.267 32.7744 120.716 32.9385C120.171 33.0967 119.562 33.1758 118.888 33.1758C118.296 33.1758 117.713 33.0938 117.139 32.9297C116.571 32.7656 116.052 32.5195 115.584 32.1914C115.121 31.8633 114.749 31.459 114.467 30.9785C114.192 30.4922 114.054 29.9297 114.054 29.291H115.742C115.742 29.7305 115.827 30.1084 115.997 30.4248C116.167 30.7354 116.398 30.9932 116.691 31.1982C116.99 31.4033 117.327 31.5557 117.702 31.6553C118.083 31.749 118.478 31.7959 118.888 31.7959C119.48 31.7959 119.981 31.7139 120.391 31.5498C120.801 31.3857 121.112 31.1514 121.323 30.8467C121.54 30.542 121.648 30.1816 121.648 29.7656ZM127.875 20.2031V33H126.178V20.2031H127.875ZM135.964 20.2031V33H134.294V20.2031H135.964ZM140.078 20.2031V21.5918H130.19V20.2031H140.078ZM150.646 31.6201V33H143.87V31.6201H150.646ZM144.212 20.2031V33H142.516V20.2031H144.212ZM149.749 25.7051V27.085H143.87V25.7051H149.749ZM150.558 20.2031V21.5918H143.87V20.2031H150.558ZM162.668 20.2031V33H160.998V20.2031H162.668ZM166.782 20.2031V21.5918H156.894V20.2031H166.782ZM177.578 25.7051V27.085H170.653V25.7051H177.578ZM170.916 20.2031V33H169.22V20.2031H170.916ZM179.055 20.2031V33H177.368V20.2031H179.055ZM187.505 21.3369L183.269 33H181.537L186.415 20.2031H187.532L187.505 21.3369ZM191.056 33L186.811 21.3369L186.784 20.2031H187.901L192.796 33H191.056ZM190.836 28.2627V29.6514H183.647V28.2627H190.836ZM198.636 20.2031V33H196.966V20.2031H198.636ZM202.749 20.2031V21.5918H192.862V20.2031H202.749ZM9.21094 48.9307H10.8984C10.8105 49.7393 10.5791 50.4629 10.2041 51.1016C9.8291 51.7402 9.29883 52.2471 8.61328 52.6221C7.92773 52.9912 7.07227 53.1758 6.04688 53.1758C5.29688 53.1758 4.61426 53.0352 3.99902 52.7539C3.38965 52.4727 2.86523 52.0742 2.42578 51.5586C1.98633 51.0371 1.64648 50.4131 1.40625 49.6865C1.17188 48.9541 1.05469 48.1396 1.05469 47.2432V45.9688C1.05469 45.0723 1.17188 44.2607 1.40625 43.5342C1.64648 42.8018 1.98926 42.1748 2.43457 41.6533C2.88574 41.1318 3.42773 40.7305 4.06055 40.4492C4.69336 40.168 5.40527 40.0273 6.19629 40.0273C7.16309 40.0273 7.98047 40.209 8.64844 40.5723C9.31641 40.9355 9.83496 41.4395 10.2041 42.084C10.5791 42.7227 10.8105 43.4639 10.8984 44.3076H9.21094C9.12891 43.71 8.97656 43.1973 8.75391 42.7695C8.53125 42.3359 8.21484 42.002 7.80469 41.7676C7.39453 41.5332 6.8584 41.416 6.19629 41.416C5.62793 41.416 5.12695 41.5244 4.69336 41.7412C4.26562 41.958 3.90527 42.2656 3.6123 42.6641C3.3252 43.0625 3.1084 43.54 2.96191 44.0967C2.81543 44.6533 2.74219 45.2715 2.74219 45.9512V47.2432C2.74219 47.8701 2.80664 48.459 2.93555 49.0098C3.07031 49.5605 3.27246 50.0439 3.54199 50.46C3.81152 50.876 4.1543 51.2041 4.57031 51.4443C4.98633 51.6787 5.47852 51.7959 6.04688 51.7959C6.76758 51.7959 7.3418 51.6816 7.76953 51.4531C8.19727 51.2246 8.51953 50.8965 8.73633 50.4688C8.95898 50.041 9.11719 49.5283 9.21094 48.9307ZM21.0712 40.2031H22.7587V48.8604C22.7587 49.8213 22.5449 50.6211 22.1171 51.2598C21.6894 51.8984 21.1211 52.3789 20.4121 52.7012C19.7089 53.0176 18.9443 53.1758 18.1181 53.1758C17.2509 53.1758 16.4658 53.0176 15.7627 52.7012C15.0654 52.3789 14.5117 51.8984 14.1015 51.2598C13.6972 50.6211 13.4951 49.8213 13.4951 48.8604V40.2031H15.1738V48.8604C15.1738 49.5283 15.2968 50.0791 15.5429 50.5127C15.789 50.9463 16.1318 51.2686 16.5712 51.4795C17.0166 51.6904 17.5322 51.7959 18.1181 51.7959C18.7099 51.7959 19.2255 51.6904 19.665 51.4795C20.1103 51.2686 20.456 50.9463 20.7021 50.5127C20.9482 50.0791 21.0712 49.5283 21.0712 48.8604V40.2031ZM32.7821 49.7656C32.7821 49.4668 32.7353 49.2031 32.6415 48.9746C32.5536 48.7402 32.3954 48.5293 32.1669 48.3418C31.9443 48.1543 31.6337 47.9756 31.2353 47.8057C30.8427 47.6357 30.3446 47.4629 29.7411 47.2871C29.1083 47.0996 28.537 46.8916 28.0273 46.6631C27.5175 46.4287 27.081 46.1621 26.7177 45.8633C26.3544 45.5645 26.0761 45.2217 25.8827 44.835C25.6894 44.4482 25.5927 44.0059 25.5927 43.5078C25.5927 43.0098 25.6952 42.5498 25.9003 42.1279C26.1054 41.7061 26.3984 41.3398 26.7792 41.0293C27.1659 40.7129 27.6259 40.4668 28.1591 40.291C28.6923 40.1152 29.287 40.0273 29.9433 40.0273C30.9042 40.0273 31.7187 40.2119 32.3866 40.5811C33.0605 40.9443 33.5732 41.4219 33.9247 42.0137C34.2763 42.5996 34.4521 43.2266 34.4521 43.8945H32.7646C32.7646 43.4141 32.662 42.9893 32.457 42.6201C32.2519 42.2451 31.9413 41.9521 31.5253 41.7412C31.1093 41.5244 30.582 41.416 29.9433 41.416C29.3398 41.416 28.8417 41.5068 28.4491 41.6885C28.0566 41.8701 27.7636 42.1162 27.5702 42.4268C27.3827 42.7373 27.289 43.0918 27.289 43.4902C27.289 43.7598 27.3446 44.0059 27.456 44.2285C27.5732 44.4453 27.7519 44.6475 27.9921 44.835C28.2382 45.0225 28.5487 45.1953 28.9237 45.3535C29.3046 45.5117 29.7587 45.6641 30.2861 45.8105C31.0126 46.0156 31.6396 46.2441 32.1669 46.4961C32.6943 46.748 33.1279 47.0322 33.4677 47.3486C33.8134 47.6592 34.0683 48.0137 34.2323 48.4121C34.4023 48.8047 34.4872 49.25 34.4872 49.748C34.4872 50.2695 34.3818 50.7412 34.1708 51.1631C33.9599 51.585 33.6581 51.9453 33.2655 52.2441C32.873 52.543 32.4013 52.7744 31.8505 52.9385C31.3056 53.0967 30.6962 53.1758 30.0224 53.1758C29.4306 53.1758 28.8476 53.0938 28.2734 52.9297C27.705 52.7656 27.1864 52.5195 26.7177 52.1914C26.2548 51.8633 25.8827 51.459 25.6015 50.9785C25.3261 50.4922 25.1884 49.9297 25.1884 49.291H26.8759C26.8759 49.7305 26.9609 50.1084 27.1308 50.4248C27.3007 50.7354 27.5321 50.9932 27.8251 51.1982C28.1239 51.4033 28.4609 51.5557 28.8359 51.6553C29.2167 51.749 29.6122 51.7959 30.0224 51.7959C30.6142 51.7959 31.1152 51.7139 31.5253 51.5498C31.9355 51.3857 32.246 51.1514 32.457 50.8467C32.6737 50.542 32.7821 50.1816 32.7821 49.7656ZM41.9179 40.2031V53H40.2479V40.2031H41.9179ZM46.0311 40.2031V41.5918H36.1434V40.2031H46.0311ZM58.076 46.1973V47.0059C58.076 47.9668 57.9559 48.8281 57.7157 49.5898C57.4754 50.3516 57.1297 50.999 56.6786 51.5322C56.2274 52.0654 55.6854 52.4727 55.0526 52.7539C54.4256 53.0352 53.7225 53.1758 52.9432 53.1758C52.1873 53.1758 51.493 53.0352 50.8602 52.7539C50.2332 52.4727 49.6883 52.0654 49.2254 51.5322C48.7684 50.999 48.4139 50.3516 48.162 49.5898C47.91 48.8281 47.784 47.9668 47.784 47.0059V46.1973C47.784 45.2363 47.9071 44.3779 48.1532 43.6221C48.4051 42.8604 48.7596 42.2129 49.2166 41.6797C49.6737 41.1406 50.2157 40.7305 50.8426 40.4492C51.4754 40.168 52.1698 40.0273 52.9256 40.0273C53.7049 40.0273 54.408 40.168 55.035 40.4492C55.6678 40.7305 56.2098 41.1406 56.661 41.6797C57.118 42.2129 57.4666 42.8604 57.7069 43.6221C57.953 44.3779 58.076 45.2363 58.076 46.1973ZM56.3973 47.0059V46.1797C56.3973 45.418 56.3182 44.7441 56.16 44.1582C56.0077 43.5723 55.7821 43.0801 55.4832 42.6816C55.1844 42.2832 54.8182 41.9814 54.3846 41.7764C53.9569 41.5713 53.4705 41.4688 52.9256 41.4688C52.3983 41.4688 51.9207 41.5713 51.493 41.7764C51.0711 41.9814 50.7079 42.2832 50.4032 42.6816C50.1043 43.0801 49.8729 43.5723 49.7088 44.1582C49.5448 44.7441 49.4627 45.418 49.4627 46.1797V47.0059C49.4627 47.7734 49.5448 48.4531 49.7088 49.0449C49.8729 49.6309 50.1073 50.126 50.412 50.5303C50.7225 50.9287 51.0887 51.2305 51.5106 51.4355C51.9383 51.6406 52.4159 51.7432 52.9432 51.7432C53.494 51.7432 53.9832 51.6406 54.411 51.4355C54.8387 51.2305 55.1991 50.9287 55.492 50.5303C55.7909 50.126 56.0164 49.6309 56.1688 49.0449C56.3211 48.4531 56.3973 47.7734 56.3973 47.0059ZM61.6922 40.2031H63.3357L67.5281 50.6357L71.7117 40.2031H73.3641L68.1609 53H66.8777L61.6922 40.2031ZM61.1561 40.2031H62.6063L62.8436 48.0078V53H61.1561V40.2031ZM72.4412 40.2031H73.8914V53H72.2039V48.0078L72.4412 40.2031ZM85.5408 51.6201V53H78.7644V51.6201H85.5408ZM79.1072 40.2031V53H77.4109V40.2031H79.1072ZM84.6443 45.7051V47.085H78.7644V45.7051H84.6443ZM85.4529 40.2031V41.5918H78.7644V40.2031H85.4529ZM88.1814 40.2031H92.4177C93.3786 40.2031 94.1902 40.3496 94.8523 40.6426C95.5202 40.9355 96.0271 41.3691 96.3728 41.9434C96.7243 42.5117 96.9001 43.2119 96.9001 44.0439C96.9001 44.6299 96.78 45.166 96.5398 45.6523C96.3054 46.1328 95.9655 46.543 95.5202 46.8828C95.0808 47.2168 94.5534 47.4658 93.9382 47.6299L93.4636 47.8145H89.4821L89.4646 46.4346H92.4704C93.0798 46.4346 93.5866 46.3291 93.9909 46.1182C94.3952 45.9014 94.6999 45.6113 94.905 45.248C95.1101 44.8848 95.2126 44.4834 95.2126 44.0439C95.2126 43.5518 95.1159 43.1211 94.9226 42.752C94.7292 42.3828 94.4245 42.0986 94.0085 41.8994C93.5984 41.6943 93.0681 41.5918 92.4177 41.5918H89.8777V53H88.1814V40.2031ZM95.6609 53L92.5495 47.1992L94.3161 47.1904L97.4714 52.8945V53H95.6609ZM106.633 49.7656C106.633 49.4668 106.587 49.2031 106.493 48.9746C106.405 48.7402 106.247 48.5293 106.018 48.3418C105.796 48.1543 105.485 47.9756 105.087 47.8057C104.694 47.6357 104.196 47.4629 103.592 47.2871C102.96 47.0996 102.388 46.8916 101.879 46.6631C101.369 46.4287 100.932 46.1621 100.569 45.8633C100.206 45.5645 99.9274 45.2217 99.7341 44.835C99.5407 44.4482 99.444 44.0059 99.444 43.5078C99.444 43.0098 99.5466 42.5498 99.7516 42.1279C99.9567 41.7061 100.25 41.3398 100.631 41.0293C101.017 40.7129 101.477 40.4668 102.01 40.291C102.544 40.1152 103.138 40.0273 103.795 40.0273C104.756 40.0273 105.57 40.2119 106.238 40.5811C106.912 40.9443 107.424 41.4219 107.776 42.0137C108.128 42.5996 108.303 43.2266 108.303 43.8945H106.616C106.616 43.4141 106.513 42.9893 106.308 42.6201C106.103 42.2451 105.793 41.9521 105.377 41.7412C104.961 41.5244 104.433 41.416 103.795 41.416C103.191 41.416 102.693 41.5068 102.3 41.6885C101.908 41.8701 101.615 42.1162 101.422 42.4268C101.234 42.7373 101.14 43.0918 101.14 43.4902C101.14 43.7598 101.196 44.0059 101.307 44.2285C101.424 44.4453 101.603 44.6475 101.843 44.835C102.09 45.0225 102.4 45.1953 102.775 45.3535C103.156 45.5117 103.61 45.6641 104.137 45.8105C104.864 46.0156 105.491 46.2441 106.018 46.4961C106.546 46.748 106.979 47.0322 107.319 47.3486C107.665 47.6592 107.92 48.0137 108.084 48.4121C108.254 48.8047 108.339 49.25 108.339 49.748C108.339 50.2695 108.233 50.7412 108.022 51.1631C107.811 51.585 107.509 51.9453 107.117 52.2441C106.724 52.543 106.253 52.7744 105.702 52.9385C105.157 53.0967 104.548 53.1758 103.874 53.1758C103.282 53.1758 102.699 53.0938 102.125 52.9297C101.556 52.7656 101.038 52.5195 100.569 52.1914C100.106 51.8633 99.7341 51.459 99.4528 50.9785C99.1774 50.4922 99.0397 49.9297 99.0397 49.291H100.727C100.727 49.7305 100.812 50.1084 100.982 50.4248C101.152 50.7354 101.383 50.9932 101.676 51.1982C101.975 51.4033 102.312 51.5557 102.687 51.6553C103.068 51.749 103.464 51.7959 103.874 51.7959C104.466 51.7959 104.966 51.7139 105.377 51.5498C105.787 51.3857 106.097 51.1514 106.308 50.8467C106.525 50.542 106.633 50.1816 106.633 49.7656ZM123.806 51.6201V53H117.408V51.6201H123.806ZM117.742 40.2031V53H116.046V40.2031H117.742ZM135.561 46.1973V47.0059C135.561 47.9668 135.441 48.8281 135.201 49.5898C134.961 50.3516 134.615 50.999 134.164 51.5322C133.712 52.0654 133.17 52.4727 132.538 52.7539C131.911 53.0352 131.208 53.1758 130.428 53.1758C129.672 53.1758 128.978 53.0352 128.345 52.7539C127.718 52.4727 127.173 52.0654 126.711 51.5322C126.253 50.999 125.899 50.3516 125.647 49.5898C125.395 48.8281 125.269 47.9668 125.269 47.0059V46.1973C125.269 45.2363 125.392 44.3779 125.638 43.6221C125.89 42.8604 126.245 42.2129 126.702 41.6797C127.159 41.1406 127.701 40.7305 128.328 40.4492C128.961 40.168 129.655 40.0273 130.411 40.0273C131.19 40.0273 131.893 40.168 132.52 40.4492C133.153 40.7305 133.695 41.1406 134.146 41.6797C134.603 42.2129 134.952 42.8604 135.192 43.6221C135.438 44.3779 135.561 45.2363 135.561 46.1973ZM133.882 47.0059V46.1797C133.882 45.418 133.803 44.7441 133.645 44.1582C133.493 43.5723 133.267 43.0801 132.968 42.6816C132.669 42.2832 132.303 41.9814 131.87 41.7764C131.442 41.5713 130.956 41.4688 130.411 41.4688C129.883 41.4688 129.406 41.5713 128.978 41.7764C128.556 41.9814 128.193 42.2832 127.888 42.6816C127.589 43.0801 127.358 43.5723 127.194 44.1582C127.03 44.7441 126.948 45.418 126.948 46.1797V47.0059C126.948 47.7734 127.03 48.4531 127.194 49.0449C127.358 49.6309 127.592 50.126 127.897 50.5303C128.208 50.9287 128.574 51.2305 128.996 51.4355C129.423 51.6406 129.901 51.7432 130.428 51.7432C130.979 51.7432 131.468 51.6406 131.896 51.4355C132.324 51.2305 132.684 50.9287 132.977 50.5303C133.276 50.126 133.502 49.6309 133.654 49.0449C133.806 48.4531 133.882 47.7734 133.882 47.0059ZM142.579 51.0576L146.349 40.2031H148.186L143.449 53H142.139L142.579 51.0576ZM139.054 40.2031L142.79 51.0576L143.255 53H141.946L137.217 40.2031H139.054ZM158.579 51.6201V53H151.802V51.6201H158.579ZM152.145 40.2031V53H150.449V40.2031H152.145ZM157.682 45.7051V47.085H151.802V45.7051H157.682ZM158.491 40.2031V41.5918H151.802V40.2031H158.491ZM162.45 51.0664V52.376C162.45 52.9092 162.315 53.4717 162.045 54.0635C161.776 54.6611 161.398 55.1592 160.912 55.5576L159.989 54.916C160.176 54.6582 160.334 54.3945 160.463 54.125C160.592 53.8613 160.689 53.5859 160.753 53.2988C160.824 53.0176 160.859 52.7188 160.859 52.4023V51.0664H162.45ZM178.076 51.6201V53H171.677V51.6201H178.076ZM172.011 40.2031V53H170.315V40.2031H172.011ZM188.688 51.6201V53H181.911V51.6201H188.688ZM182.254 40.2031V53H180.558V40.2031H182.254ZM187.791 45.7051V47.085H181.911V45.7051H187.791ZM188.6 40.2031V41.5918H181.911V40.2031H188.6ZM196.233 40.2031V53H194.563V40.2031H196.233ZM200.346 40.2031V41.5918H190.458V40.2031H200.346ZM2.07422 60.2031L5.39648 66.6279L8.72754 60.2031H10.6523L6.24023 68.2188V73H4.54395V68.2188L0.131836 60.2031H2.07422ZM22.4248 66.1973V67.0059C22.4248 67.9668 22.3046 68.8281 22.0644 69.5898C21.8242 70.3516 21.4785 70.999 21.0273 71.5322C20.5761 72.0654 20.0341 72.4727 19.4013 72.7539C18.7744 73.0352 18.0712 73.1758 17.292 73.1758C16.5361 73.1758 15.8418 73.0352 15.2089 72.7539C14.582 72.4727 14.0371 72.0654 13.5742 71.5322C13.1171 70.999 12.7627 70.3516 12.5107 69.5898C12.2587 68.8281 12.1328 67.9668 12.1328 67.0059V66.1973C12.1328 65.2363 12.2558 64.3779 12.5019 63.6221C12.7539 62.8604 13.1084 62.2129 13.5654 61.6797C14.0224 61.1406 14.5644 60.7305 15.1914 60.4492C15.8242 60.168 16.5185 60.0273 17.2744 60.0273C18.0537 60.0273 18.7568 60.168 19.3837 60.4492C20.0166 60.7305 20.5586 61.1406 21.0097 61.6797C21.4668 62.2129 21.8154 62.8604 22.0556 63.6221C22.3017 64.3779 22.4248 65.2363 22.4248 66.1973ZM20.7461 67.0059V66.1797C20.7461 65.418 20.667 64.7441 20.5087 64.1582C20.3564 63.5723 20.1308 63.0801 19.832 62.6816C19.5332 62.2832 19.167 61.9814 18.7334 61.7764C18.3056 61.5713 17.8193 61.4688 17.2744 61.4688C16.747 61.4688 16.2695 61.5713 15.8418 61.7764C15.4199 61.9814 15.0566 62.2832 14.7519 62.6816C14.4531 63.0801 14.2216 63.5723 14.0576 64.1582C13.8935 64.7441 13.8115 65.418 13.8115 66.1797V67.0059C13.8115 67.7734 13.8935 68.4531 14.0576 69.0449C14.2216 69.6309 14.456 70.126 14.7607 70.5303C15.0712 70.9287 15.4375 71.2305 15.8593 71.4355C16.2871 71.6406 16.7646 71.7432 17.292 71.7432C17.8427 71.7432 18.332 71.6406 18.7597 71.4355C19.1875 71.2305 19.5478 70.9287 19.8408 70.5303C20.1396 70.126 20.3652 69.6309 20.5175 69.0449C20.6699 68.4531 20.7461 67.7734 20.7461 67.0059ZM32.8261 60.2031H34.5136V68.8604C34.5136 69.8213 34.2997 70.6211 33.872 71.2598C33.4443 71.8984 32.8759 72.3789 32.1669 72.7012C31.4638 73.0176 30.6991 73.1758 29.873 73.1758C29.0058 73.1758 28.2206 73.0176 27.5175 72.7012C26.8202 72.3789 26.2665 71.8984 25.8564 71.2598C25.4521 70.6211 25.2499 69.8213 25.2499 68.8604V60.2031H26.9286V68.8604C26.9286 69.5283 27.0517 70.0791 27.2978 70.5127C27.5439 70.9463 27.8866 71.2686 28.3261 71.4795C28.7714 71.6904 29.287 71.7959 29.873 71.7959C30.4648 71.7959 30.9804 71.6904 31.4198 71.4795C31.8652 71.2686 32.2109 70.9463 32.457 70.5127C32.703 70.0791 32.8261 69.5283 32.8261 68.8604V60.2031ZM37.7167 60.2031H41.953C42.9139 60.2031 43.7255 60.3496 44.3876 60.6426C45.0555 60.9355 45.5624 61.3691 45.9081 61.9434C46.2596 62.5117 46.4354 63.2119 46.4354 64.0439C46.4354 64.6299 46.3153 65.166 46.0751 65.6523C45.8407 66.1328 45.5009 66.543 45.0555 66.8828C44.6161 67.2168 44.0887 67.4658 43.4735 67.6299L42.9989 67.8145H39.0175L38.9999 66.4346H42.0057C42.6151 66.4346 43.122 66.3291 43.5262 66.1182C43.9305 65.9014 44.2352 65.6113 44.4403 65.248C44.6454 64.8848 44.7479 64.4834 44.7479 64.0439C44.7479 63.5518 44.6512 63.1211 44.4579 62.752C44.2645 62.3828 43.9598 62.0986 43.5438 61.8994C43.1337 61.6943 42.6034 61.5918 41.953 61.5918H39.413V73H37.7167V60.2031ZM45.1962 73L42.0848 67.1992L43.8514 67.1904L47.0067 72.8945V73H45.1962ZM58.9148 67.0146H55.6717L55.6541 65.6523H58.5984C59.0848 65.6523 59.5096 65.5703 59.8729 65.4062C60.2361 65.2422 60.5174 65.0078 60.7166 64.7031C60.9217 64.3926 61.0242 64.0234 61.0242 63.5957C61.0242 63.127 60.9334 62.7461 60.7518 62.4531C60.576 62.1543 60.3035 61.9375 59.9344 61.8027C59.5711 61.6621 59.1082 61.5918 58.5457 61.5918H56.0496V73H54.3533V60.2031H58.5457C59.202 60.2031 59.7879 60.2705 60.3035 60.4053C60.8191 60.5342 61.2557 60.7393 61.6131 61.0205C61.9764 61.2959 62.2518 61.6475 62.4393 62.0752C62.6268 62.5029 62.7205 63.0156 62.7205 63.6133C62.7205 64.1406 62.5857 64.6182 62.3162 65.0459C62.0467 65.4678 61.6717 65.8135 61.1912 66.083C60.7166 66.3525 60.16 66.5254 59.5213 66.6016L58.9148 67.0146ZM58.8357 73H55.0037L55.9617 71.6201H58.8357C59.3748 71.6201 59.8318 71.5264 60.2068 71.3389C60.5877 71.1514 60.8777 70.8877 61.077 70.5479C61.2762 70.2021 61.3758 69.7949 61.3758 69.3262C61.3758 68.8516 61.2908 68.4414 61.1209 68.0957C60.951 67.75 60.6844 67.4834 60.3211 67.2959C59.9578 67.1084 59.4891 67.0146 58.9148 67.0146H56.4979L56.5154 65.6523H59.8201L60.1805 66.1445C60.7957 66.1973 61.3172 66.373 61.7449 66.6719C62.1727 66.9648 62.4979 67.3398 62.7205 67.7969C62.949 68.2539 63.0633 68.7578 63.0633 69.3086C63.0633 70.1055 62.8875 70.7793 62.5359 71.3301C62.1902 71.875 61.701 72.291 61.0682 72.5781C60.4354 72.8594 59.6912 73 58.8357 73ZM66.1082 60.2031H70.3445C71.3054 60.2031 72.117 60.3496 72.7791 60.6426C73.447 60.9355 73.9539 61.3691 74.2996 61.9434C74.6511 62.5117 74.8269 63.2119 74.8269 64.0439C74.8269 64.6299 74.7068 65.166 74.4666 65.6523C74.2322 66.1328 73.8923 66.543 73.447 66.8828C73.0076 67.2168 72.4802 67.4658 71.865 67.6299L71.3904 67.8145H67.4089L67.3914 66.4346H70.3972C71.0066 66.4346 71.5134 66.3291 71.9177 66.1182C72.322 65.9014 72.6267 65.6113 72.8318 65.248C73.0369 64.8848 73.1394 64.4834 73.1394 64.0439C73.1394 63.5518 73.0427 63.1211 72.8494 62.752C72.656 62.3828 72.3513 62.0986 71.9353 61.8994C71.5252 61.6943 70.9949 61.5918 70.3445 61.5918H67.8045V73H66.1082V60.2031ZM73.5877 73L70.4763 67.1992L72.2429 67.1904L75.3982 72.8945V73H73.5877ZM82.4773 61.3369L78.2409 73H76.5095L81.3874 60.2031H82.5036L82.4773 61.3369ZM86.028 73L81.7829 61.3369L81.7566 60.2031H82.8728L87.7683 73H86.028ZM85.8083 68.2627V69.6514H78.6189V68.2627H85.8083ZM99.8659 60.2031V73H98.1608L91.7184 63.1299V73H90.0221V60.2031H91.7184L98.1872 70.0996V60.2031H99.8659ZM106.875 73H104.203L104.22 71.6201H106.875C107.789 71.6201 108.55 71.4297 109.16 71.0488C109.769 70.6621 110.226 70.123 110.531 69.4316C110.841 68.7344 110.997 67.9199 110.997 66.9883V66.2061C110.997 65.4736 110.909 64.8232 110.733 64.2549C110.557 63.6807 110.299 63.1973 109.96 62.8047C109.62 62.4062 109.204 62.1045 108.712 61.8994C108.225 61.6943 107.666 61.5918 107.033 61.5918H104.15V60.2031H107.033C107.871 60.2031 108.635 60.3438 109.327 60.625C110.018 60.9004 110.613 61.3018 111.111 61.8291C111.615 62.3506 112.002 62.9834 112.271 63.7275C112.541 64.4658 112.675 65.2979 112.675 66.2236V66.9883C112.675 67.9141 112.541 68.749 112.271 69.4932C112.002 70.2314 111.612 70.8613 111.102 71.3828C110.598 71.9043 109.989 72.3057 109.274 72.5869C108.565 72.8623 107.765 73 106.875 73ZM105.108 60.2031V73H103.412V60.2031H105.108ZM127.589 69.7656C127.589 69.4668 127.543 69.2031 127.449 68.9746C127.361 68.7402 127.203 68.5293 126.974 68.3418C126.752 68.1543 126.441 67.9756 126.043 67.8057C125.65 67.6357 125.152 67.4629 124.548 67.2871C123.916 67.0996 123.344 66.8916 122.835 66.6631C122.325 66.4287 121.888 66.1621 121.525 65.8633C121.162 65.5645 120.883 65.2217 120.69 64.835C120.497 64.4482 120.4 64.0059 120.4 63.5078C120.4 63.0098 120.503 62.5498 120.708 62.1279C120.913 61.7061 121.206 61.3398 121.586 61.0293C121.973 60.7129 122.433 60.4668 122.966 60.291C123.5 60.1152 124.094 60.0273 124.751 60.0273C125.711 60.0273 126.526 60.2119 127.194 60.5811C127.868 60.9443 128.38 61.4219 128.732 62.0137C129.084 62.5996 129.259 63.2266 129.259 63.8945H127.572C127.572 63.4141 127.469 62.9893 127.264 62.6201C127.059 62.2451 126.749 61.9521 126.333 61.7412C125.917 61.5244 125.389 61.416 124.751 61.416C124.147 61.416 123.649 61.5068 123.256 61.6885C122.864 61.8701 122.571 62.1162 122.378 62.4268C122.19 62.7373 122.096 63.0918 122.096 63.4902C122.096 63.7598 122.152 64.0059 122.263 64.2285C122.38 64.4453 122.559 64.6475 122.799 64.835C123.045 65.0225 123.356 65.1953 123.731 65.3535C124.112 65.5117 124.566 65.6641 125.093 65.8105C125.82 66.0156 126.447 66.2441 126.974 66.4961C127.502 66.748 127.935 67.0322 128.275 67.3486C128.621 67.6592 128.876 68.0137 129.04 68.4121C129.21 68.8047 129.294 69.25 129.294 69.748C129.294 70.2695 129.189 70.7412 128.978 71.1631C128.767 71.585 128.465 71.9453 128.073 72.2441C127.68 72.543 127.209 72.7744 126.658 72.9385C126.113 73.0967 125.503 73.1758 124.83 73.1758C124.238 73.1758 123.655 73.0938 123.081 72.9297C122.512 72.7656 121.994 72.5195 121.525 72.1914C121.062 71.8633 120.69 71.459 120.409 70.9785C120.133 70.4922 119.996 69.9297 119.996 69.291H121.683C121.683 69.7305 121.768 70.1084 121.938 70.4248C122.108 70.7354 122.339 70.9932 122.632 71.1982C122.931 71.4033 123.268 71.5557 123.643 71.6553C124.024 71.749 124.419 71.7959 124.83 71.7959C125.421 71.7959 125.922 71.7139 126.333 71.5498C126.743 71.3857 127.053 71.1514 127.264 70.8467C127.481 70.542 127.589 70.1816 127.589 69.7656ZM140.355 65.7051V67.085H133.429V65.7051H140.355ZM133.693 60.2031V73H131.997V60.2031H133.693ZM141.832 60.2031V73H140.144V60.2031H141.832ZM155.239 66.1973V67.0059C155.239 67.9668 155.119 68.8281 154.878 69.5898C154.638 70.3516 154.292 70.999 153.841 71.5322C153.39 72.0654 152.848 72.4727 152.215 72.7539C151.588 73.0352 150.885 73.1758 150.106 73.1758C149.35 73.1758 148.656 73.0352 148.023 72.7539C147.396 72.4727 146.851 72.0654 146.388 71.5322C145.931 70.999 145.577 70.3516 145.325 69.5898C145.073 68.8281 144.947 67.9668 144.947 67.0059V66.1973C144.947 65.2363 145.07 64.3779 145.316 63.6221C145.568 62.8604 145.922 62.2129 146.379 61.6797C146.836 61.1406 147.378 60.7305 148.005 60.4492C148.638 60.168 149.333 60.0273 150.088 60.0273C150.868 60.0273 151.571 60.168 152.198 60.4492C152.831 60.7305 153.373 61.1406 153.824 61.6797C154.281 62.2129 154.629 62.8604 154.87 63.6221C155.116 64.3779 155.239 65.2363 155.239 66.1973ZM153.56 67.0059V66.1797C153.56 65.418 153.481 64.7441 153.323 64.1582C153.17 63.5723 152.945 63.0801 152.646 62.6816C152.347 62.2832 151.981 61.9814 151.547 61.7764C151.12 61.5713 150.633 61.4688 150.088 61.4688C149.561 61.4688 149.083 61.5713 148.656 61.7764C148.234 61.9814 147.871 62.2832 147.566 62.6816C147.267 63.0801 147.036 63.5723 146.872 64.1582C146.708 64.7441 146.625 65.418 146.625 66.1797V67.0059C146.625 67.7734 146.708 68.4531 146.872 69.0449C147.036 69.6309 147.27 70.126 147.575 70.5303C147.885 70.9287 148.251 71.2305 148.673 71.4355C149.101 71.6406 149.579 71.7432 150.106 71.7432C150.657 71.7432 151.146 71.6406 151.574 71.4355C152.001 71.2305 152.362 70.9287 152.655 70.5303C152.954 70.126 153.179 69.6309 153.332 69.0449C153.484 68.4531 153.56 67.7734 153.56 67.0059ZM161.685 69.1328L164.225 60.2031H165.456L164.744 63.6748L162.01 73H160.789L161.685 69.1328ZM159.057 60.2031L161.079 68.957L161.685 73H160.472L157.37 60.2031H159.057ZM168.743 68.9482L170.72 60.2031H172.416L169.323 73H168.11L168.743 68.9482ZM165.64 60.2031L168.11 69.1328L169.006 73H167.785L165.148 63.6748L164.427 60.2031H165.64ZM181.658 69.7656C181.658 69.4668 181.611 69.2031 181.517 68.9746C181.429 68.7402 181.271 68.5293 181.042 68.3418C180.82 68.1543 180.509 67.9756 180.111 67.8057C179.718 67.6357 179.22 67.4629 178.617 67.2871C177.984 67.0996 177.413 66.8916 176.903 66.6631C176.393 66.4287 175.956 66.1621 175.593 65.8633C175.23 65.5645 174.952 65.2217 174.758 64.835C174.565 64.4482 174.468 64.0059 174.468 63.5078C174.468 63.0098 174.571 62.5498 174.776 62.1279C174.981 61.7061 175.274 61.3398 175.655 61.0293C176.041 60.7129 176.501 60.4668 177.035 60.291C177.568 60.1152 178.163 60.0273 178.819 60.0273C179.78 60.0273 180.594 60.2119 181.262 60.5811C181.936 60.9443 182.449 61.4219 182.8 62.0137C183.152 62.5996 183.328 63.2266 183.328 63.8945H181.64C181.64 63.4141 181.538 62.9893 181.332 62.6201C181.127 62.2451 180.817 61.9521 180.401 61.7412C179.985 61.5244 179.457 61.416 178.819 61.416C178.215 61.416 177.717 61.5068 177.325 61.6885C176.932 61.8701 176.639 62.1162 176.446 62.4268C176.258 62.7373 176.164 63.0918 176.164 63.4902C176.164 63.7598 176.22 64.0059 176.331 64.2285C176.449 64.4453 176.627 64.6475 176.868 64.835C177.114 65.0225 177.424 65.1953 177.799 65.3535C178.18 65.5117 178.634 65.6641 179.162 65.8105C179.888 66.0156 180.515 66.2441 181.042 66.4961C181.57 66.748 182.003 67.0322 182.343 67.3486C182.689 67.6592 182.944 68.0137 183.108 68.4121C183.278 68.8047 183.363 69.25 183.363 69.748C183.363 70.2695 183.257 70.7412 183.046 71.1631C182.835 71.585 182.534 71.9453 182.141 72.2441C181.748 72.543 181.277 72.7744 180.726 72.9385C180.181 73.0967 179.572 73.1758 178.898 73.1758C178.306 73.1758 177.723 73.0938 177.149 72.9297C176.58 72.7656 176.062 72.5195 175.593 72.1914C175.13 71.8633 174.758 71.459 174.477 70.9785C174.202 70.4922 174.064 69.9297 174.064 69.291H175.751C175.751 69.7305 175.836 70.1084 176.006 70.4248C176.176 70.7354 176.408 70.9932 176.701 71.1982C176.999 71.4033 177.336 71.5557 177.711 71.6553C178.092 71.749 178.488 71.7959 178.898 71.7959C179.49 71.7959 179.991 71.7139 180.401 71.5498C180.811 71.3857 181.121 71.1514 181.332 70.8467C181.549 70.542 181.658 70.1816 181.658 69.7656ZM8.05078 91.5322L11.3027 94.1074L10.1602 95.1621L6.96094 92.6221L8.05078 91.5322ZM11.2588 86.1973V87.0059C11.2588 87.9668 11.1387 88.8281 10.8984 89.5898C10.6582 90.3516 10.3125 90.999 9.86133 91.5322C9.41016 92.0654 8.86816 92.4727 8.23535 92.7539C7.6084 93.0352 6.90527 93.1758 6.12598 93.1758C5.37012 93.1758 4.67578 93.0352 4.04297 92.7539C3.41602 92.4727 2.87109 92.0654 2.4082 91.5322C1.95117 90.999 1.59668 90.3516 1.34473 89.5898C1.09277 88.8281 0.966797 87.9668 0.966797 87.0059V86.1973C0.966797 85.2363 1.08984 84.3779 1.33594 83.6221C1.58789 82.8604 1.94238 82.2129 2.39941 81.6797C2.85645 81.1406 3.39844 80.7305 4.02539 80.4492C4.6582 80.168 5.35254 80.0273 6.1084 80.0273C6.8877 80.0273 7.59375 80.168 8.22656 80.4492C8.85938 80.7305 9.40137 81.1406 9.85254 81.6797C10.3037 82.2129 10.6494 82.8604 10.8896 83.6221C11.1357 84.3779 11.2588 85.2363 11.2588 86.1973ZM9.58008 87.0059V86.1797C9.58008 85.418 9.50098 84.7441 9.34277 84.1582C9.19043 83.5723 8.96484 83.0801 8.66602 82.6816C8.36719 82.2832 8.00391 81.9814 7.57617 81.7764C7.14844 81.5713 6.65918 81.4688 6.1084 81.4688C5.58691 81.4688 5.1123 81.5713 4.68457 81.7764C4.2627 81.9814 3.89941 82.2832 3.59473 82.6816C3.29004 83.0801 3.05566 83.5723 2.8916 84.1582C2.72754 84.7441 2.64551 85.418 2.64551 86.1797V87.0059C2.64551 87.7734 2.72754 88.4531 2.8916 89.0449C3.05566 89.6309 3.29004 90.126 3.59473 90.5303C3.90527 90.9287 4.27441 91.2305 4.70215 91.4355C5.12988 91.6406 5.60449 91.7432 6.12598 91.7432C6.67676 91.7432 7.16602 91.6406 7.59375 91.4355C8.02148 91.2305 8.38184 90.9287 8.6748 90.5303C8.97363 90.126 9.19922 89.6309 9.35156 89.0449C9.50391 88.4531 9.58008 87.7734 9.58008 87.0059ZM21.7392 80.2031H23.4267V88.8604C23.4267 89.8213 23.2129 90.6211 22.7851 91.2598C22.3574 91.8984 21.789 92.3789 21.08 92.7012C20.3769 93.0176 19.6123 93.1758 18.7861 93.1758C17.9189 93.1758 17.1337 93.0176 16.4306 92.7012C15.7334 92.3789 15.1796 91.8984 14.7695 91.2598C14.3652 90.6211 14.163 89.8213 14.163 88.8604V80.2031H15.8418V88.8604C15.8418 89.5283 15.9648 90.0791 16.2109 90.5127C16.457 90.9463 16.7998 91.2686 17.2392 91.4795C17.6845 91.6904 18.2002 91.7959 18.7861 91.7959C19.3779 91.7959 19.8935 91.6904 20.333 91.4795C20.7783 91.2686 21.124 90.9463 21.3701 90.5127C21.6162 90.0791 21.7392 89.5283 21.7392 88.8604V80.2031ZM31.1737 81.3369L26.9374 93H25.206L30.0839 80.2031H31.2001L31.1737 81.3369ZM34.7245 93L30.4794 81.3369L30.453 80.2031H31.5693L36.4648 93H34.7245ZM34.5048 88.2627V89.6514H27.3154V88.2627H34.5048ZM46.4794 91.6201V93H40.0809V91.6201H46.4794ZM40.4149 80.2031V93H38.7186V80.2031H40.4149ZM50.7811 80.2031V93H49.0848V80.2031H50.7811ZM58.8709 80.2031V93H57.201V80.2031H58.8709ZM62.9842 80.2031V81.5918H53.0965V80.2031H62.9842ZM66.1521 80.2031L69.4744 86.6279L72.8054 80.2031H74.7302L70.3181 88.2188V93H68.6218V88.2188L64.2097 80.2031H66.1521ZM74.8308 92.1387C74.8308 91.8633 74.9157 91.6318 75.0857 91.4443C75.2614 91.251 75.5134 91.1543 75.8415 91.1543C76.1696 91.1543 76.4187 91.251 76.5886 91.4443C76.7644 91.6318 76.8523 91.8633 76.8523 92.1387C76.8523 92.4082 76.7644 92.6367 76.5886 92.8242C76.4187 93.0117 76.1696 93.1055 75.8415 93.1055C75.5134 93.1055 75.2614 93.0117 75.0857 92.8242C74.9157 92.6367 74.8308 92.4082 74.8308 92.1387Z" fill="#A5886E"/>
</svg>
