<svg width="210" height="224" viewBox="0 0 210 224" fill="none" xmlns="http://www.w3.org/2000/svg">
<path d="M110.49 223.9C95.12 223.9 81.2967 221.097 69.02 215.49C56.84 209.883 46.4967 202.005 37.99 191.855C29.4833 181.705 22.9583 169.863 18.415 156.33C13.9683 142.797 11.745 128.103 11.745 112.25C11.745 96.3967 14.1133 81.7033 18.85 68.17C23.5867 54.6367 30.305 42.795 39.005 32.645C47.8017 22.495 58.2417 14.6167 70.325 9.01C82.4083 3.40332 95.7967 0.599985 110.49 0.599985C125.28 0.599985 138.668 3.40332 150.655 9.01C162.738 14.6167 173.13 22.495 181.83 32.645C190.627 42.795 197.345 54.6367 201.985 68.17C206.722 81.7033 209.09 96.3967 209.09 112.25C209.09 128.103 206.867 142.797 202.42 156.33C197.973 169.863 191.497 181.705 182.99 191.855C174.483 202.005 164.14 209.883 151.96 215.49C139.78 221.097 125.957 223.9 110.49 223.9ZM110.49 223.32C120.64 223.32 128.808 220.42 134.995 214.62C141.278 208.723 146.112 200.652 149.495 190.405C152.878 180.062 155.15 168.22 156.31 154.88C157.567 141.443 158.195 127.233 158.195 112.25C158.195 97.17 157.422 82.96 155.875 69.62C154.425 56.28 151.912 44.4867 148.335 34.24C144.758 23.8967 139.877 15.825 133.69 10.025C127.6 4.12833 119.867 1.18 110.49 1.18C101.21 1.18 93.4283 4.12833 87.145 10.025C80.9583 15.825 76.0767 23.8967 72.5 34.24C68.9233 44.4867 66.3617 56.28 64.815 69.62C63.365 82.96 62.64 97.17 62.64 112.25C62.64 127.233 63.22 141.443 64.38 154.88C65.6367 168.22 67.9567 180.013 71.34 190.26C74.7233 200.507 79.5567 208.578 85.84 214.475C92.22 220.372 100.437 223.32 110.49 223.32Z" fill="#CCC5BE"/>
<g filter="url(#filter0_d_1_57)">
<path d="M85.9103 92.6201V94H79.5118V92.6201H85.9103ZM79.8458 81.2031V94H78.1495V81.2031H79.8458ZM96.5225 92.6201V94H89.7462V92.6201H96.5225ZM90.0889 81.2031V94H88.3927V81.2031H90.0889ZM95.6261 86.7051V88.085H89.7462V86.7051H95.6261ZM96.4346 81.2031V82.5918H89.7462V81.2031H96.4346ZM104.067 81.2031V94H102.398V81.2031H104.067ZM108.181 81.2031V82.5918H98.293V81.2031H108.181ZM119.649 81.2031V94H117.979V81.2031H119.649ZM123.763 81.2031V82.5918H113.875V81.2031H123.763ZM134.559 86.7051V88.085H127.634V86.7051H134.559ZM127.897 81.2031V94H126.201V81.2031H127.897ZM136.036 81.2031V94H134.349V81.2031H136.036ZM147.721 92.6201V94H140.944V92.6201H147.721ZM141.287 81.2031V94H139.591V81.2031H141.287ZM146.824 86.7051V88.085H140.944V86.7051H146.824ZM147.633 81.2031V82.5918H140.944V81.2031H147.633ZM86.0723 114H83.4005L83.418 112.62H86.0723C86.9864 112.62 87.7481 112.43 88.3575 112.049C88.9669 111.662 89.4239 111.123 89.7286 110.432C90.0391 109.734 90.1944 108.92 90.1944 107.988V107.206C90.1944 106.474 90.1065 105.823 89.9307 105.255C89.755 104.681 89.4971 104.197 89.1573 103.805C88.8175 103.406 88.4014 103.104 87.9093 102.899C87.4229 102.694 86.8634 102.592 86.2305 102.592H83.3477V101.203H86.2305C87.0684 101.203 87.8331 101.344 88.5245 101.625C89.2159 101.9 89.8106 102.302 90.3087 102.829C90.8126 103.351 91.1993 103.983 91.4688 104.728C91.7384 105.466 91.8731 106.298 91.8731 107.224V107.988C91.8731 108.914 91.7384 109.749 91.4688 110.493C91.1993 111.231 90.8096 111.861 90.2999 112.383C89.796 112.904 89.1866 113.306 88.4718 113.587C87.7628 113.862 86.963 114 86.0723 114ZM84.3057 101.203V114H82.6095V101.203H84.3057ZM94.962 101.203H99.1983C100.159 101.203 100.971 101.35 101.633 101.643C102.301 101.936 102.808 102.369 103.153 102.943C103.505 103.512 103.681 104.212 103.681 105.044C103.681 105.63 103.561 106.166 103.32 106.652C103.086 107.133 102.746 107.543 102.301 107.883C101.861 108.217 101.334 108.466 100.719 108.63L100.244 108.814H96.2627L96.2452 107.435H99.251C99.8604 107.435 100.367 107.329 100.772 107.118C101.176 106.901 101.481 106.611 101.686 106.248C101.891 105.885 101.993 105.483 101.993 105.044C101.993 104.552 101.897 104.121 101.703 103.752C101.51 103.383 101.205 103.099 100.789 102.899C100.379 102.694 99.8487 102.592 99.1983 102.592H96.6582V114H94.962V101.203ZM102.441 114L99.3301 108.199L101.097 108.19L104.252 113.895V114H102.441ZM114.724 112.62V114H107.947V112.62H114.724ZM108.29 101.203V114H106.594V101.203H108.29ZM113.827 106.705V108.085H107.947V106.705H113.827ZM114.636 101.203V102.592H107.947V101.203H114.636ZM122.102 102.337L117.865 114H116.134L121.012 101.203H122.128L122.102 102.337ZM125.652 114L121.407 102.337L121.381 101.203H122.497L127.393 114H125.652ZM125.433 109.263V110.651H118.243V109.263H125.433ZM130.183 101.203H131.826L136.018 111.636L140.202 101.203H141.854L136.651 114H135.368L130.183 101.203ZM129.646 101.203H131.097L131.334 109.008V114H129.646V101.203ZM140.932 101.203H142.382V114H140.694V109.008L140.932 101.203ZM81.443 128.015H78.1998L78.1822 126.652H81.1266C81.6129 126.652 82.0377 126.57 82.401 126.406C82.7643 126.242 83.0455 126.008 83.2447 125.703C83.4498 125.393 83.5523 125.023 83.5523 124.596C83.5523 124.127 83.4615 123.746 83.2799 123.453C83.1041 123.154 82.8316 122.938 82.4625 122.803C82.0992 122.662 81.6363 122.592 81.0738 122.592H78.5777V134H76.8814V121.203H81.0738C81.7301 121.203 82.316 121.271 82.8316 121.405C83.3473 121.534 83.7838 121.739 84.1412 122.021C84.5045 122.296 84.7799 122.647 84.9674 123.075C85.1549 123.503 85.2486 124.016 85.2486 124.613C85.2486 125.141 85.1139 125.618 84.8443 126.046C84.5748 126.468 84.1998 126.813 83.7193 127.083C83.2447 127.353 82.6881 127.525 82.0494 127.602L81.443 128.015ZM81.3639 134H77.5318L78.4898 132.62H81.3639C81.9029 132.62 82.36 132.526 82.735 132.339C83.1158 132.151 83.4059 131.888 83.6051 131.548C83.8043 131.202 83.9039 130.795 83.9039 130.326C83.9039 129.852 83.8189 129.441 83.649 129.096C83.4791 128.75 83.2125 128.483 82.8492 128.296C82.4859 128.108 82.0172 128.015 81.443 128.015H79.026L79.0436 126.652H82.3482L82.7086 127.145C83.3238 127.197 83.8453 127.373 84.273 127.672C84.7008 127.965 85.026 128.34 85.2486 128.797C85.4771 129.254 85.5914 129.758 85.5914 130.309C85.5914 131.105 85.4156 131.779 85.0641 132.33C84.7184 132.875 84.2291 133.291 83.5963 133.578C82.9635 133.859 82.2193 134 81.3639 134ZM96.7662 132.62V134H89.9898V132.62H96.7662ZM90.3326 121.203V134H88.6363V121.203H90.3326ZM95.8697 126.705V128.085H89.9898V126.705H95.8697ZM96.6783 121.203V122.592H89.9898V121.203H96.6783ZM107.132 129.931H108.82C108.732 130.739 108.501 131.463 108.126 132.102C107.751 132.74 107.22 133.247 106.535 133.622C105.849 133.991 104.994 134.176 103.968 134.176C103.218 134.176 102.536 134.035 101.92 133.754C101.311 133.473 100.787 133.074 100.347 132.559C99.9077 132.037 99.5679 131.413 99.3277 130.687C99.0933 129.954 98.9761 129.14 98.9761 128.243V126.969C98.9761 126.072 99.0933 125.261 99.3277 124.534C99.5679 123.802 99.9107 123.175 100.356 122.653C100.807 122.132 101.349 121.73 101.982 121.449C102.615 121.168 103.327 121.027 104.118 121.027C105.084 121.027 105.902 121.209 106.57 121.572C107.238 121.936 107.756 122.439 108.126 123.084C108.501 123.723 108.732 124.464 108.82 125.308H107.132C107.05 124.71 106.898 124.197 106.675 123.77C106.453 123.336 106.136 123.002 105.726 122.768C105.316 122.533 104.78 122.416 104.118 122.416C103.549 122.416 103.048 122.524 102.615 122.741C102.187 122.958 101.827 123.266 101.534 123.664C101.247 124.062 101.03 124.54 100.883 125.097C100.737 125.653 100.664 126.271 100.664 126.951V128.243C100.664 128.87 100.728 129.459 100.857 130.01C100.992 130.561 101.194 131.044 101.463 131.46C101.733 131.876 102.076 132.204 102.492 132.444C102.908 132.679 103.4 132.796 103.968 132.796C104.689 132.796 105.263 132.682 105.691 132.453C106.119 132.225 106.441 131.896 106.658 131.469C106.88 131.041 107.039 130.528 107.132 129.931ZM121.524 127.197V128.006C121.524 128.967 121.404 129.828 121.164 130.59C120.923 131.352 120.578 131.999 120.126 132.532C119.675 133.065 119.133 133.473 118.5 133.754C117.874 134.035 117.17 134.176 116.391 134.176C115.635 134.176 114.941 134.035 114.308 133.754C113.681 133.473 113.136 133.065 112.673 132.532C112.216 131.999 111.862 131.352 111.61 130.59C111.358 129.828 111.232 128.967 111.232 128.006V127.197C111.232 126.236 111.355 125.378 111.601 124.622C111.853 123.86 112.208 123.213 112.665 122.68C113.122 122.141 113.664 121.73 114.291 121.449C114.923 121.168 115.618 121.027 116.374 121.027C117.153 121.027 117.856 121.168 118.483 121.449C119.116 121.73 119.658 122.141 120.109 122.68C120.566 123.213 120.915 123.86 121.155 124.622C121.401 125.378 121.524 126.236 121.524 127.197ZM119.845 128.006V127.18C119.845 126.418 119.766 125.744 119.608 125.158C119.456 124.572 119.23 124.08 118.931 123.682C118.632 123.283 118.266 122.981 117.833 122.776C117.405 122.571 116.918 122.469 116.374 122.469C115.846 122.469 115.369 122.571 114.941 122.776C114.519 122.981 114.156 123.283 113.851 123.682C113.552 124.08 113.321 124.572 113.157 125.158C112.993 125.744 112.911 126.418 112.911 127.18V128.006C112.911 128.773 112.993 129.453 113.157 130.045C113.321 130.631 113.555 131.126 113.86 131.53C114.17 131.929 114.537 132.23 114.958 132.436C115.386 132.641 115.864 132.743 116.391 132.743C116.942 132.743 117.431 132.641 117.859 132.436C118.287 132.23 118.647 131.929 118.94 131.53C119.239 131.126 119.464 130.631 119.617 130.045C119.769 129.453 119.845 128.773 119.845 128.006ZM125.14 121.203H126.784L130.976 131.636L135.16 121.203H136.812L131.609 134H130.326L125.14 121.203ZM124.604 121.203H126.054L126.291 129.008V134H124.604V121.203ZM135.889 121.203H137.339V134H135.652V129.008L135.889 121.203ZM148.989 132.62V134H142.212V132.62H148.989ZM142.555 121.203V134H140.859V121.203H142.555ZM148.092 126.705V128.085H142.212V126.705H148.092ZM148.901 121.203V122.592H142.212V121.203H148.901ZM96.0367 141.203V154H94.3668V141.203H96.0367ZM100.15 141.203V142.592H90.2623V141.203H100.15ZM102.588 141.203H106.825C107.786 141.203 108.597 141.35 109.259 141.643C109.927 141.936 110.434 142.369 110.78 142.943C111.131 143.512 111.307 144.212 111.307 145.044C111.307 145.63 111.187 146.166 110.947 146.652C110.712 147.133 110.373 147.543 109.927 147.883C109.488 148.217 108.96 148.466 108.345 148.63L107.871 148.814H103.889L103.872 147.435H106.877C107.487 147.435 107.994 147.329 108.398 147.118C108.802 146.901 109.107 146.611 109.312 146.248C109.517 145.885 109.62 145.483 109.62 145.044C109.62 144.552 109.523 144.121 109.33 143.752C109.136 143.383 108.832 143.099 108.416 142.899C108.005 142.694 107.475 142.592 106.825 142.592H104.285V154H102.588V141.203ZM110.068 154L106.957 148.199L108.723 148.19L111.878 153.895V154H110.068ZM121.541 141.203H123.229V149.86C123.229 150.821 123.015 151.621 122.587 152.26C122.16 152.898 121.591 153.379 120.882 153.701C120.179 154.018 119.415 154.176 118.588 154.176C117.721 154.176 116.936 154.018 116.233 153.701C115.536 153.379 114.982 152.898 114.572 152.26C114.167 151.621 113.965 150.821 113.965 149.86V141.203H115.644V149.86C115.644 150.528 115.767 151.079 116.013 151.513C116.259 151.946 116.602 152.269 117.041 152.479C117.487 152.69 118.002 152.796 118.588 152.796C119.18 152.796 119.696 152.69 120.135 152.479C120.581 152.269 120.926 151.946 121.172 151.513C121.418 151.079 121.541 150.528 121.541 149.86V141.203ZM134.562 152.62V154H127.786V152.62H134.562ZM128.128 141.203V154H126.432V141.203H128.128ZM133.665 146.705V148.085H127.786V146.705H133.665ZM134.474 141.203V142.592H127.786V141.203H134.474Z" fill="#CCC5BE"/>
</g>
<defs>
<filter id="filter0_d_1_57" x="66.8814" y="75.2031" width="92.1072" height="92.9727" filterUnits="userSpaceOnUse" color-interpolation-filters="sRGB">
<feFlood flood-opacity="0" result="BackgroundImageFix"/>
<feColorMatrix in="SourceAlpha" type="matrix" values="0 0 0 0 0 0 0 0 0 0 0 0 0 0 0 0 0 0 127 0" result="hardAlpha"/>
<feOffset dy="4"/>
<feGaussianBlur stdDeviation="5"/>
<feComposite in2="hardAlpha" operator="out"/>
<feColorMatrix type="matrix" values="0 0 0 0 0 0 0 0 0 0 0 0 0 0 0 0 0 0 0.4 0"/>
<feBlend mode="normal" in2="BackgroundImageFix" result="effect1_dropShadow_1_57"/>
<feBlend mode="normal" in="SourceGraphic" in2="effect1_dropShadow_1_57" result="shape"/>
</filter>
</defs>
</svg>
