<svg width="232" height="430" viewBox="0 0 232 430" fill="none" xmlns="http://www.w3.org/2000/svg">
<path d="M4.785 218V217.42H30.885V1.07999H4.785V0.499983H101.935V1.07999H75.98V217.42H105.56C116.29 217.42 125.57 215.825 133.4 212.635C141.23 209.348 147.755 204.805 152.975 199.005C158.292 193.108 162.448 186.245 165.445 178.415C168.538 170.488 170.617 161.933 171.68 152.75H172.26V218H4.785Z" fill="#A5886E"/>
<path d="M29.0469 340.015H25.8037L25.7861 338.652H28.7305C29.2168 338.652 29.6416 338.57 30.0049 338.406C30.3682 338.242 30.6494 338.008 30.8486 337.703C31.0537 337.393 31.1562 337.023 31.1562 336.596C31.1562 336.127 31.0654 335.746 30.8838 335.453C30.708 335.154 30.4355 334.938 30.0664 334.803C29.7031 334.662 29.2402 334.592 28.6777 334.592H26.1816V346H24.4854V333.203H28.6777C29.334 333.203 29.9199 333.271 30.4355 333.405C30.9512 333.534 31.3877 333.739 31.7451 334.021C32.1084 334.296 32.3838 334.647 32.5713 335.075C32.7588 335.503 32.8525 336.016 32.8525 336.613C32.8525 337.141 32.7178 337.618 32.4482 338.046C32.1787 338.468 31.8037 338.813 31.3232 339.083C30.8486 339.353 30.292 339.525 29.6533 339.602L29.0469 340.015ZM28.9678 346H25.1357L26.0938 344.62H28.9678C29.5068 344.62 29.9639 344.526 30.3389 344.339C30.7197 344.151 31.0098 343.888 31.209 343.548C31.4082 343.202 31.5078 342.795 31.5078 342.326C31.5078 341.852 31.4229 341.441 31.2529 341.096C31.083 340.75 30.8164 340.483 30.4531 340.296C30.0898 340.108 29.6211 340.015 29.0469 340.015H26.6299L26.6475 338.652H29.9521L30.3125 339.145C30.9277 339.197 31.4492 339.373 31.877 339.672C32.3047 339.965 32.6299 340.34 32.8525 340.797C33.0811 341.254 33.1953 341.758 33.1953 342.309C33.1953 343.105 33.0195 343.779 32.668 344.33C32.3223 344.875 31.833 345.291 31.2002 345.578C30.5674 345.859 29.8232 346 28.9678 346ZM46.0927 339.197V340.006C46.0927 340.967 45.9726 341.828 45.7324 342.59C45.4921 343.352 45.1464 343.999 44.6953 344.532C44.2441 345.065 43.7021 345.473 43.0693 345.754C42.4423 346.035 41.7392 346.176 40.9599 346.176C40.2041 346.176 39.5097 346.035 38.8769 345.754C38.25 345.473 37.705 345.065 37.2421 344.532C36.7851 343.999 36.4306 343.352 36.1787 342.59C35.9267 341.828 35.8007 340.967 35.8007 340.006V339.197C35.8007 338.236 35.9238 337.378 36.1699 336.622C36.4218 335.86 36.7763 335.213 37.2334 334.68C37.6904 334.141 38.2324 333.73 38.8593 333.449C39.4921 333.168 40.1865 333.027 40.9423 333.027C41.7216 333.027 42.4248 333.168 43.0517 333.449C43.6845 333.73 44.2265 334.141 44.6777 334.68C45.1347 335.213 45.4834 335.86 45.7236 336.622C45.9697 337.378 46.0927 338.236 46.0927 339.197ZM44.414 340.006V339.18C44.414 338.418 44.3349 337.744 44.1767 337.158C44.0244 336.572 43.7988 336.08 43.5 335.682C43.2011 335.283 42.8349 334.981 42.4013 334.776C41.9736 334.571 41.4873 334.469 40.9423 334.469C40.415 334.469 39.9375 334.571 39.5097 334.776C39.0879 334.981 38.7246 335.283 38.4199 335.682C38.1211 336.08 37.8896 336.572 37.7255 337.158C37.5615 337.744 37.4795 338.418 37.4795 339.18V340.006C37.4795 340.773 37.5615 341.453 37.7255 342.045C37.8896 342.631 38.124 343.126 38.4287 343.53C38.7392 343.929 39.1054 344.23 39.5273 344.436C39.955 344.641 40.4326 344.743 40.9599 344.743C41.5107 344.743 42 344.641 42.4277 344.436C42.8554 344.23 43.2158 343.929 43.5087 343.53C43.8076 343.126 44.0332 342.631 44.1855 342.045C44.3379 341.453 44.414 340.773 44.414 340.006ZM59.0253 339.197V340.006C59.0253 340.967 58.9052 341.828 58.665 342.59C58.4247 343.352 58.079 343.999 57.6279 344.532C57.1767 345.065 56.6347 345.473 56.0019 345.754C55.3749 346.035 54.6718 346.176 53.8925 346.176C53.1366 346.176 52.4423 346.035 51.8095 345.754C51.1825 345.473 50.6376 345.065 50.1747 344.532C49.7177 343.999 49.3632 343.352 49.1112 342.59C48.8593 341.828 48.7333 340.967 48.7333 340.006V339.197C48.7333 338.236 48.8564 337.378 49.1025 336.622C49.3544 335.86 49.7089 335.213 50.1659 334.68C50.623 334.141 51.165 333.73 51.7919 333.449C52.4247 333.168 53.1191 333.027 53.8749 333.027C54.6542 333.027 55.3573 333.168 55.9843 333.449C56.6171 333.73 57.1591 334.141 57.6103 334.68C58.0673 335.213 58.4159 335.86 58.6562 336.622C58.9023 337.378 59.0253 338.236 59.0253 339.197ZM57.3466 340.006V339.18C57.3466 338.418 57.2675 337.744 57.1093 337.158C56.957 336.572 56.7314 336.08 56.4325 335.682C56.1337 335.283 55.7675 334.981 55.3339 334.776C54.9062 334.571 54.4198 334.469 53.8749 334.469C53.3476 334.469 52.87 334.571 52.4423 334.776C52.0204 334.981 51.6571 335.283 51.3525 335.682C51.0536 336.08 50.8222 336.572 50.6581 337.158C50.4941 337.744 50.412 338.418 50.412 339.18V340.006C50.412 340.773 50.4941 341.453 50.6581 342.045C50.8222 342.631 51.0566 343.126 51.3612 343.53C51.6718 343.929 52.038 344.23 52.4599 344.436C52.8876 344.641 53.3652 344.743 53.8925 344.743C54.4433 344.743 54.9325 344.641 55.3603 344.436C55.788 344.23 56.1484 343.929 56.4413 343.53C56.7402 343.126 56.9657 342.631 57.1181 342.045C57.2704 341.453 57.3466 340.773 57.3466 340.006ZM68.9257 342.766C68.9257 342.467 68.8788 342.203 68.785 341.975C68.6971 341.74 68.5389 341.529 68.3104 341.342C68.0878 341.154 67.7772 340.976 67.3788 340.806C66.9862 340.636 66.4882 340.463 65.8846 340.287C65.2518 340.1 64.6805 339.892 64.1708 339.663C63.661 339.429 63.2245 339.162 62.8612 338.863C62.4979 338.564 62.2196 338.222 62.0262 337.835C61.8329 337.448 61.7362 337.006 61.7362 336.508C61.7362 336.01 61.8387 335.55 62.0438 335.128C62.2489 334.706 62.5419 334.34 62.9227 334.029C63.3095 333.713 63.7694 333.467 64.3026 333.291C64.8358 333.115 65.4305 333.027 66.0868 333.027C67.0477 333.027 67.8622 333.212 68.5302 333.581C69.204 333.944 69.7167 334.422 70.0682 335.014C70.4198 335.6 70.5956 336.227 70.5956 336.895H68.9081C68.9081 336.414 68.8055 335.989 68.6005 335.62C68.3954 335.245 68.0848 334.952 67.6688 334.741C67.2528 334.524 66.7255 334.416 66.0868 334.416C65.4833 334.416 64.9852 334.507 64.5927 334.688C64.2001 334.87 63.9071 335.116 63.7137 335.427C63.5262 335.737 63.4325 336.092 63.4325 336.49C63.4325 336.76 63.4882 337.006 63.5995 337.229C63.7167 337.445 63.8954 337.647 64.1356 337.835C64.3817 338.022 64.6923 338.195 65.0673 338.354C65.4481 338.512 65.9022 338.664 66.4296 338.811C67.1561 339.016 67.7831 339.244 68.3104 339.496C68.8378 339.748 69.2714 340.032 69.6112 340.349C69.9569 340.659 70.2118 341.014 70.3759 341.412C70.5458 341.805 70.6307 342.25 70.6307 342.748C70.6307 343.27 70.5253 343.741 70.3143 344.163C70.1034 344.585 69.8016 344.945 69.4091 345.244C69.0165 345.543 68.5448 345.774 67.994 345.938C67.4491 346.097 66.8397 346.176 66.1659 346.176C65.5741 346.176 64.9911 346.094 64.4169 345.93C63.8485 345.766 63.33 345.52 62.8612 345.191C62.3983 344.863 62.0262 344.459 61.745 343.979C61.4696 343.492 61.3319 342.93 61.3319 342.291H63.0194C63.0194 342.73 63.1044 343.108 63.2743 343.425C63.4442 343.735 63.6757 343.993 63.9686 344.198C64.2675 344.403 64.6044 344.556 64.9794 344.655C65.3602 344.749 65.7557 344.796 66.1659 344.796C66.7577 344.796 67.2587 344.714 67.6688 344.55C68.079 344.386 68.3895 344.151 68.6005 343.847C68.8173 343.542 68.9257 343.182 68.9257 342.766ZM78.0614 333.203V346H76.3914V333.203H78.0614ZM82.1746 333.203V334.592H72.287V333.203H82.1746ZM89.8552 333.203L93.1775 339.628L96.5086 333.203H98.4334L94.0212 341.219V346H92.325V341.219L87.9128 333.203H89.8552ZM110.206 339.197V340.006C110.206 340.967 110.086 341.828 109.845 342.59C109.605 343.352 109.259 343.999 108.808 344.532C108.357 345.065 107.815 345.473 107.182 345.754C106.555 346.035 105.852 346.176 105.073 346.176C104.317 346.176 103.623 346.035 102.99 345.754C102.363 345.473 101.818 345.065 101.355 344.532C100.898 343.999 100.544 343.352 100.292 342.59C100.04 341.828 99.9138 340.967 99.9138 340.006V339.197C99.9138 338.236 100.037 337.378 100.283 336.622C100.535 335.86 100.889 335.213 101.346 334.68C101.803 334.141 102.345 333.73 102.972 333.449C103.605 333.168 104.3 333.027 105.055 333.027C105.835 333.027 106.538 333.168 107.165 333.449C107.798 333.73 108.34 334.141 108.791 334.68C109.248 335.213 109.596 335.86 109.837 336.622C110.083 337.378 110.206 338.236 110.206 339.197ZM108.527 340.006V339.18C108.527 338.418 108.448 337.744 108.29 337.158C108.137 336.572 107.912 336.08 107.613 335.682C107.314 335.283 106.948 334.981 106.514 334.776C106.087 334.571 105.6 334.469 105.055 334.469C104.528 334.469 104.051 334.571 103.623 334.776C103.201 334.981 102.838 335.283 102.533 335.682C102.234 336.08 102.003 336.572 101.839 337.158C101.675 337.744 101.592 338.418 101.592 339.18V340.006C101.592 340.773 101.675 341.453 101.839 342.045C102.003 342.631 102.237 343.126 102.542 343.53C102.852 343.929 103.218 344.23 103.64 344.436C104.068 344.641 104.546 344.743 105.073 344.743C105.624 344.743 106.113 344.641 106.541 344.436C106.968 344.23 107.329 343.929 107.622 343.53C107.921 343.126 108.146 342.631 108.299 342.045C108.451 341.453 108.527 340.773 108.527 340.006ZM120.607 333.203H122.295V341.86C122.295 342.821 122.081 343.621 121.653 344.26C121.225 344.898 120.657 345.379 119.948 345.701C119.245 346.018 118.48 346.176 117.654 346.176C116.787 346.176 116.002 346.018 115.299 345.701C114.601 345.379 114.048 344.898 113.637 344.26C113.233 343.621 113.031 342.821 113.031 341.86V333.203H114.71V341.86C114.71 342.528 114.833 343.079 115.079 343.513C115.325 343.946 115.668 344.269 116.107 344.479C116.552 344.69 117.068 344.796 117.654 344.796C118.246 344.796 118.761 344.69 119.201 344.479C119.646 344.269 119.992 343.946 120.238 343.513C120.484 343.079 120.607 342.528 120.607 341.86V333.203ZM125.498 333.203H129.734C130.695 333.203 131.506 333.35 132.169 333.643C132.837 333.936 133.343 334.369 133.689 334.943C134.041 335.512 134.216 336.212 134.216 337.044C134.216 337.63 134.096 338.166 133.856 338.652C133.622 339.133 133.282 339.543 132.837 339.883C132.397 340.217 131.87 340.466 131.255 340.63L130.78 340.814H126.798L126.781 339.435H129.787C130.396 339.435 130.903 339.329 131.307 339.118C131.712 338.901 132.016 338.611 132.221 338.248C132.426 337.885 132.529 337.483 132.529 337.044C132.529 336.552 132.432 336.121 132.239 335.752C132.046 335.383 131.741 335.099 131.325 334.899C130.915 334.694 130.384 334.592 129.734 334.592H127.194V346H125.498V333.203ZM132.977 346L129.866 340.199L131.632 340.19L134.788 345.895V346H132.977ZM146.696 340.015H143.453L143.435 338.652H146.379C146.866 338.652 147.291 338.57 147.654 338.406C148.017 338.242 148.298 338.008 148.498 337.703C148.703 337.393 148.805 337.023 148.805 336.596C148.805 336.127 148.714 335.746 148.533 335.453C148.357 335.154 148.085 334.938 147.715 334.803C147.352 334.662 146.889 334.592 146.327 334.592H143.831V346H142.134V333.203H146.327C146.983 333.203 147.569 333.271 148.085 333.405C148.6 333.534 149.037 333.739 149.394 334.021C149.757 334.296 150.033 334.647 150.22 335.075C150.408 335.503 150.502 336.016 150.502 336.613C150.502 337.141 150.367 337.618 150.097 338.046C149.828 338.468 149.453 338.813 148.972 339.083C148.498 339.353 147.941 339.525 147.302 339.602L146.696 340.015ZM146.617 346H142.785L143.743 344.62H146.617C147.156 344.62 147.613 344.526 147.988 344.339C148.369 344.151 148.659 343.888 148.858 343.548C149.057 343.202 149.157 342.795 149.157 342.326C149.157 341.852 149.072 341.441 148.902 341.096C148.732 340.75 148.465 340.483 148.102 340.296C147.739 340.108 147.27 340.015 146.696 340.015H144.279L144.296 338.652H147.601L147.961 339.145C148.577 339.197 149.098 339.373 149.526 339.672C149.954 339.965 150.279 340.34 150.502 340.797C150.73 341.254 150.844 341.758 150.844 342.309C150.844 343.105 150.669 343.779 150.317 344.33C149.971 344.875 149.482 345.291 148.849 345.578C148.216 345.859 147.472 346 146.617 346ZM161.21 333.203H162.898V341.86C162.898 342.821 162.684 343.621 162.256 344.26C161.829 344.898 161.26 345.379 160.551 345.701C159.848 346.018 159.084 346.176 158.257 346.176C157.39 346.176 156.605 346.018 155.902 345.701C155.205 345.379 154.651 344.898 154.241 344.26C153.836 343.621 153.634 342.821 153.634 341.86V333.203H155.313V341.86C155.313 342.528 155.436 343.079 155.682 343.513C155.928 343.946 156.271 344.269 156.71 344.479C157.156 344.69 157.671 344.796 158.257 344.796C158.849 344.796 159.365 344.69 159.804 344.479C160.25 344.269 160.595 343.946 160.841 343.513C161.087 343.079 161.21 342.528 161.21 341.86V333.203ZM172.921 342.766C172.921 342.467 172.874 342.203 172.781 341.975C172.693 341.74 172.535 341.529 172.306 341.342C172.083 341.154 171.773 340.976 171.374 340.806C170.982 340.636 170.484 340.463 169.88 340.287C169.248 340.1 168.676 339.892 168.166 339.663C167.657 339.429 167.22 339.162 166.857 338.863C166.494 338.564 166.215 338.222 166.022 337.835C165.829 337.448 165.732 337.006 165.732 336.508C165.732 336.01 165.834 335.55 166.04 335.128C166.245 334.706 166.538 334.34 166.918 334.029C167.305 333.713 167.765 333.467 168.298 333.291C168.832 333.115 169.426 333.027 170.083 333.027C171.043 333.027 171.858 333.212 172.526 333.581C173.2 333.944 173.712 334.422 174.064 335.014C174.416 335.6 174.591 336.227 174.591 336.895H172.904C172.904 336.414 172.801 335.989 172.596 335.62C172.391 335.245 172.081 334.952 171.665 334.741C171.249 334.524 170.721 334.416 170.083 334.416C169.479 334.416 168.981 334.507 168.588 334.688C168.196 334.87 167.903 335.116 167.709 335.427C167.522 335.737 167.428 336.092 167.428 336.49C167.428 336.76 167.484 337.006 167.595 337.229C167.712 337.445 167.891 337.647 168.131 337.835C168.377 338.022 168.688 338.195 169.063 338.354C169.444 338.512 169.898 338.664 170.425 338.811C171.152 339.016 171.779 339.244 172.306 339.496C172.833 339.748 173.267 340.032 173.607 340.349C173.953 340.659 174.208 341.014 174.372 341.412C174.541 341.805 174.626 342.25 174.626 342.748C174.626 343.27 174.521 343.741 174.31 344.163C174.099 344.585 173.797 344.945 173.405 345.244C173.012 345.543 172.541 345.774 171.99 345.938C171.445 346.097 170.835 346.176 170.162 346.176C169.57 346.176 168.987 346.094 168.413 345.93C167.844 345.766 167.326 345.52 166.857 345.191C166.394 344.863 166.022 344.459 165.741 343.979C165.465 343.492 165.328 342.93 165.328 342.291H167.015C167.015 342.73 167.1 343.108 167.27 343.425C167.44 343.735 167.671 343.993 167.964 344.198C168.263 344.403 168.6 344.556 168.975 344.655C169.356 344.749 169.751 344.796 170.162 344.796C170.753 344.796 171.254 344.714 171.665 344.55C172.075 344.386 172.385 344.151 172.596 343.847C172.813 343.542 172.921 343.182 172.921 342.766ZM179.148 333.203V346H177.452V333.203H179.148ZM192.617 333.203V346H190.912L184.469 336.13V346H182.773V333.203H184.469L190.938 343.1V333.203H192.617ZM204.292 344.62V346H197.516V344.62H204.292ZM197.859 333.203V346H196.162V333.203H197.859ZM203.396 338.705V340.085H197.516V338.705H203.396ZM204.204 333.203V334.592H197.516V333.203H204.204ZM213.753 342.766C213.753 342.467 213.706 342.203 213.613 341.975C213.525 341.74 213.367 341.529 213.138 341.342C212.915 341.154 212.605 340.976 212.206 340.806C211.814 340.636 211.316 340.463 210.712 340.287C210.079 340.1 209.508 339.892 208.998 339.663C208.489 339.429 208.052 339.162 207.689 338.863C207.326 338.564 207.047 338.222 206.854 337.835C206.66 337.448 206.564 337.006 206.564 336.508C206.564 336.01 206.666 335.55 206.871 335.128C207.076 334.706 207.369 334.34 207.75 334.029C208.137 333.713 208.597 333.467 209.13 333.291C209.663 333.115 210.258 333.027 210.914 333.027C211.875 333.027 212.69 333.212 213.358 333.581C214.032 333.944 214.544 334.422 214.896 335.014C215.247 335.6 215.423 336.227 215.423 336.895H213.736C213.736 336.414 213.633 335.989 213.428 335.62C213.223 335.245 212.912 334.952 212.496 334.741C212.08 334.524 211.553 334.416 210.914 334.416C210.311 334.416 209.813 334.507 209.42 334.688C209.028 334.87 208.735 335.116 208.541 335.427C208.354 335.737 208.26 336.092 208.26 336.49C208.26 336.76 208.316 337.006 208.427 337.229C208.544 337.445 208.723 337.647 208.963 337.835C209.209 338.022 209.52 338.195 209.895 338.354C210.276 338.512 210.73 338.664 211.257 338.811C211.984 339.016 212.611 339.244 213.138 339.496C213.665 339.748 214.099 340.032 214.439 340.349C214.785 340.659 215.039 341.014 215.203 341.412C215.373 341.805 215.458 342.25 215.458 342.748C215.458 343.27 215.353 343.741 215.142 344.163C214.931 344.585 214.629 344.945 214.237 345.244C213.844 345.543 213.372 345.774 212.822 345.938C212.277 346.097 211.667 346.176 210.993 346.176C210.402 346.176 209.819 346.094 209.244 345.93C208.676 345.766 208.158 345.52 207.689 345.191C207.226 344.863 206.854 344.459 206.573 343.979C206.297 343.492 206.16 342.93 206.16 342.291H207.847C207.847 342.73 207.932 343.108 208.102 343.425C208.272 343.735 208.503 343.993 208.796 344.198C209.095 344.403 209.432 344.556 209.807 344.655C210.188 344.749 210.583 344.796 210.993 344.796C211.585 344.796 212.086 344.714 212.496 344.55C212.907 344.386 213.217 344.151 213.428 343.847C213.645 343.542 213.753 343.182 213.753 342.766ZM224.981 342.766C224.981 342.467 224.934 342.203 224.84 341.975C224.752 341.74 224.594 341.529 224.366 341.342C224.143 341.154 223.832 340.976 223.434 340.806C223.041 340.636 222.543 340.463 221.94 340.287C221.307 340.1 220.736 339.892 220.226 339.663C219.716 339.429 219.28 339.162 218.916 338.863C218.553 338.564 218.275 338.222 218.081 337.835C217.888 337.448 217.791 337.006 217.791 336.508C217.791 336.01 217.894 335.55 218.099 335.128C218.304 334.706 218.597 334.34 218.978 334.029C219.365 333.713 219.824 333.467 220.358 333.291C220.891 333.115 221.486 333.027 222.142 333.027C223.103 333.027 223.917 333.212 224.585 333.581C225.259 333.944 225.772 334.422 226.123 335.014C226.475 335.6 226.651 336.227 226.651 336.895H224.963C224.963 336.414 224.861 335.989 224.656 335.62C224.45 335.245 224.14 334.952 223.724 334.741C223.308 334.524 222.781 334.416 222.142 334.416C221.538 334.416 221.04 334.507 220.648 334.688C220.255 334.87 219.962 335.116 219.769 335.427C219.581 335.737 219.488 336.092 219.488 336.49C219.488 336.76 219.543 337.006 219.655 337.229C219.772 337.445 219.95 337.647 220.191 337.835C220.437 338.022 220.747 338.195 221.122 338.354C221.503 338.512 221.957 338.664 222.485 338.811C223.211 339.016 223.838 339.244 224.366 339.496C224.893 339.748 225.326 340.032 225.666 340.349C226.012 340.659 226.267 341.014 226.431 341.412C226.601 341.805 226.686 342.25 226.686 342.748C226.686 343.27 226.58 343.741 226.369 344.163C226.158 344.585 225.857 344.945 225.464 345.244C225.072 345.543 224.6 345.774 224.049 345.938C223.504 346.097 222.895 346.176 222.221 346.176C221.629 346.176 221.046 346.094 220.472 345.93C219.904 345.766 219.385 345.52 218.916 345.191C218.453 344.863 218.081 344.459 217.8 343.979C217.525 343.492 217.387 342.93 217.387 342.291H219.074C219.074 342.73 219.159 343.108 219.329 343.425C219.499 343.735 219.731 343.993 220.024 344.198C220.323 344.403 220.659 344.556 221.034 344.655C221.415 344.749 221.811 344.796 222.221 344.796C222.813 344.796 223.314 344.714 223.724 344.55C224.134 344.386 224.445 344.151 224.656 343.847C224.872 343.542 224.981 343.182 224.981 342.766ZM230.618 344.066V345.376C230.618 345.909 230.484 346.472 230.214 347.063C229.945 347.661 229.567 348.159 229.08 348.558L228.157 347.916C228.345 347.658 228.503 347.395 228.632 347.125C228.761 346.861 228.858 346.586 228.922 346.299C228.992 346.018 229.028 345.719 229.028 345.402V344.066H230.618ZM29.0469 360.015H25.8037L25.7861 358.652H28.7305C29.2168 358.652 29.6416 358.57 30.0049 358.406C30.3682 358.242 30.6494 358.008 30.8486 357.703C31.0537 357.393 31.1562 357.023 31.1562 356.596C31.1562 356.127 31.0654 355.746 30.8838 355.453C30.708 355.154 30.4355 354.938 30.0664 354.803C29.7031 354.662 29.2402 354.592 28.6777 354.592H26.1816V366H24.4854V353.203H28.6777C29.334 353.203 29.9199 353.271 30.4355 353.405C30.9512 353.534 31.3877 353.739 31.7451 354.021C32.1084 354.296 32.3838 354.647 32.5713 355.075C32.7588 355.503 32.8525 356.016 32.8525 356.613C32.8525 357.141 32.7178 357.618 32.4482 358.046C32.1787 358.468 31.8037 358.813 31.3232 359.083C30.8486 359.353 30.292 359.525 29.6533 359.602L29.0469 360.015ZM28.9678 366H25.1357L26.0938 364.62H28.9678C29.5068 364.62 29.9639 364.526 30.3389 364.339C30.7197 364.151 31.0098 363.888 31.209 363.548C31.4082 363.202 31.5078 362.795 31.5078 362.326C31.5078 361.852 31.4229 361.441 31.2529 361.096C31.083 360.75 30.8164 360.483 30.4531 360.296C30.0898 360.108 29.6211 360.015 29.0469 360.015H26.6299L26.6475 358.652H29.9521L30.3125 359.145C30.9277 359.197 31.4492 359.373 31.877 359.672C32.3047 359.965 32.6299 360.34 32.8525 360.797C33.0811 361.254 33.1953 361.758 33.1953 362.309C33.1953 363.105 33.0195 363.779 32.668 364.33C32.3223 364.875 31.833 365.291 31.2002 365.578C30.5674 365.859 29.8232 366 28.9678 366ZM43.5615 353.203H45.249V361.86C45.249 362.821 45.0351 363.621 44.6074 364.26C44.1796 364.898 43.6113 365.379 42.9023 365.701C42.1992 366.018 41.4345 366.176 40.6084 366.176C39.7412 366.176 38.956 366.018 38.2529 365.701C37.5556 365.379 37.0019 364.898 36.5918 364.26C36.1875 363.621 35.9853 362.821 35.9853 361.86V353.203H37.664V361.86C37.664 362.528 37.7871 363.079 38.0332 363.513C38.2793 363.946 38.622 364.269 39.0615 364.479C39.5068 364.69 40.0224 364.796 40.6084 364.796C41.2002 364.796 41.7158 364.69 42.1552 364.479C42.6005 364.269 42.9462 363.946 43.1923 363.513C43.4384 363.079 43.5615 362.528 43.5615 361.86V353.203ZM50.2714 353.203V366H48.5751V353.203H50.2714ZM61.6571 364.62V366H55.2587V364.62H61.6571ZM55.5927 353.203V366H53.8964V353.203H55.5927ZM67.6024 366H64.9305L64.9481 364.62H67.6024C68.5164 364.62 69.2782 364.43 69.8875 364.049C70.4969 363.662 70.9539 363.123 71.2586 362.432C71.5692 361.734 71.7245 360.92 71.7245 359.988V359.206C71.7245 358.474 71.6366 357.823 71.4608 357.255C71.285 356.681 71.0272 356.197 70.6873 355.805C70.3475 355.406 69.9315 355.104 69.4393 354.899C68.953 354.694 68.3934 354.592 67.7606 354.592H64.8778V353.203H67.7606C68.5985 353.203 69.3631 353.344 70.0545 353.625C70.7459 353.9 71.3407 354.302 71.8387 354.829C72.3426 355.351 72.7293 355.983 72.9989 356.728C73.2684 357.466 73.4032 358.298 73.4032 359.224V359.988C73.4032 360.914 73.2684 361.749 72.9989 362.493C72.7293 363.231 72.3397 363.861 71.8299 364.383C71.326 364.904 70.7166 365.306 70.0018 365.587C69.2928 365.862 68.493 366 67.6024 366ZM65.8358 353.203V366H64.1395V353.203H65.8358ZM86.2341 354.337L81.9978 366H80.2664L85.1443 353.203H86.2605L86.2341 354.337ZM89.7849 366L85.5398 354.337L85.5134 353.203H86.6297L91.5252 366H89.7849ZM89.5652 361.263V362.651H82.3757V361.263H89.5652ZM102.15 362.133L104.69 353.203H105.921L105.209 356.675L102.475 366H101.254L102.15 362.133ZM99.5221 353.203L101.544 361.957L102.15 366H100.937L97.8346 353.203H99.5221ZM109.208 361.948L111.185 353.203H112.882L109.788 366H108.575L109.208 361.948ZM106.105 353.203L108.575 362.133L109.471 366H108.25L105.613 356.675L104.892 353.203H106.105ZM123.432 364.62V366H116.656V364.62H123.432ZM116.999 353.203V366H115.302V353.203H116.999ZM122.536 358.705V360.085H116.656V358.705H122.536ZM123.344 353.203V354.592H116.656V353.203H123.344ZM130.634 360.015H127.391L127.374 358.652H130.318C130.804 358.652 131.229 358.57 131.592 358.406C131.956 358.242 132.237 358.008 132.436 357.703C132.641 357.393 132.744 357.023 132.744 356.596C132.744 356.127 132.653 355.746 132.471 355.453C132.296 355.154 132.023 354.938 131.654 354.803C131.291 354.662 130.828 354.592 130.265 354.592H127.769V366H126.073V353.203H130.265C130.921 353.203 131.507 353.271 132.023 353.405C132.539 353.534 132.975 353.739 133.333 354.021C133.696 354.296 133.971 354.647 134.159 355.075C134.346 355.503 134.44 356.016 134.44 356.613C134.44 357.141 134.305 357.618 134.036 358.046C133.766 358.468 133.391 358.813 132.911 359.083C132.436 359.353 131.879 359.525 131.241 359.602L130.634 360.015ZM130.555 366H126.723L127.681 364.62H130.555C131.094 364.62 131.551 364.526 131.926 364.339C132.307 364.151 132.597 363.888 132.796 363.548C132.996 363.202 133.095 362.795 133.095 362.326C133.095 361.852 133.01 361.441 132.84 361.096C132.671 360.75 132.404 360.483 132.041 360.296C131.677 360.108 131.209 360.015 130.634 360.015H128.217L128.235 358.652H131.54L131.9 359.145C132.515 359.197 133.037 359.373 133.464 359.672C133.892 359.965 134.217 360.34 134.44 360.797C134.669 361.254 134.783 361.758 134.783 362.309C134.783 363.105 134.607 363.779 134.255 364.33C133.91 364.875 133.421 365.291 132.788 365.578C132.155 365.859 131.411 366 130.555 366ZM144.648 362.766C144.648 362.467 144.601 362.203 144.507 361.975C144.419 361.74 144.261 361.529 144.033 361.342C143.81 361.154 143.5 360.976 143.101 360.806C142.709 360.636 142.211 360.463 141.607 360.287C140.974 360.1 140.403 359.892 139.893 359.663C139.383 359.429 138.947 359.162 138.584 358.863C138.22 358.564 137.942 358.222 137.749 357.835C137.555 357.448 137.459 357.006 137.459 356.508C137.459 356.01 137.561 355.55 137.766 355.128C137.971 354.706 138.264 354.34 138.645 354.029C139.032 353.713 139.492 353.467 140.025 353.291C140.558 353.115 141.153 353.027 141.809 353.027C142.77 353.027 143.585 353.212 144.253 353.581C144.926 353.944 145.439 354.422 145.791 355.014C146.142 355.6 146.318 356.227 146.318 356.895H144.63C144.63 356.414 144.528 355.989 144.323 355.62C144.118 355.245 143.807 354.952 143.391 354.741C142.975 354.524 142.448 354.416 141.809 354.416C141.206 354.416 140.708 354.507 140.315 354.688C139.922 354.87 139.629 355.116 139.436 355.427C139.249 355.737 139.155 356.092 139.155 356.49C139.155 356.76 139.211 357.006 139.322 357.229C139.439 357.445 139.618 357.647 139.858 357.835C140.104 358.022 140.415 358.195 140.79 358.354C141.17 358.512 141.625 358.664 142.152 358.811C142.878 359.016 143.505 359.244 144.033 359.496C144.56 359.748 144.994 360.032 145.334 360.349C145.679 360.659 145.934 361.014 146.098 361.412C146.268 361.805 146.353 362.25 146.353 362.748C146.353 363.27 146.248 363.741 146.037 364.163C145.826 364.585 145.524 364.945 145.131 365.244C144.739 365.543 144.267 365.774 143.716 365.938C143.171 366.097 142.562 366.176 141.888 366.176C141.296 366.176 140.713 366.094 140.139 365.93C139.571 365.766 139.052 365.52 138.584 365.191C138.121 364.863 137.749 364.459 137.467 363.979C137.192 363.492 137.054 362.93 137.054 362.291H138.742C138.742 362.73 138.827 363.108 138.997 363.425C139.167 363.735 139.398 363.993 139.691 364.198C139.99 364.403 140.327 364.556 140.702 364.655C141.083 364.749 141.478 364.796 141.888 364.796C142.48 364.796 142.981 364.714 143.391 364.55C143.801 364.386 144.112 364.151 144.323 363.847C144.54 363.542 144.648 363.182 144.648 362.766ZM150.875 353.203V366H149.178V353.203H150.875ZM158.964 353.203V366H157.294V353.203H158.964ZM163.078 353.203V354.592H153.19V353.203H163.078ZM173.646 364.62V366H166.87V364.62H173.646ZM167.212 353.203V366H165.516V353.203H167.212ZM172.749 358.705V360.085H166.87V358.705H172.749ZM173.558 353.203V354.592H166.87V353.203H173.558ZM185.668 353.203V366H183.998V353.203H185.668ZM189.782 353.203V354.592H179.894V353.203H189.782ZM200.578 358.705V360.085H193.653V358.705H200.578ZM193.916 353.203V366H192.22V353.203H193.916ZM202.055 353.203V366H200.368V353.203H202.055ZM210.505 354.337L206.269 366H204.537L209.415 353.203H210.532L210.505 354.337ZM214.056 366L209.811 354.337L209.784 353.203H210.901L215.796 366H214.056ZM213.836 361.263V362.651H206.647V361.263H213.836ZM221.636 353.203V366H219.966V353.203H221.636ZM225.749 353.203V354.592H215.862V353.203H225.749ZM32.2109 381.931H33.8984C33.8105 382.739 33.5791 383.463 33.2041 384.102C32.8291 384.74 32.2988 385.247 31.6133 385.622C30.9277 385.991 30.0723 386.176 29.0469 386.176C28.2969 386.176 27.6143 386.035 26.999 385.754C26.3896 385.473 25.8652 385.074 25.4258 384.559C24.9863 384.037 24.6465 383.413 24.4062 382.687C24.1719 381.954 24.0547 381.14 24.0547 380.243V378.969C24.0547 378.072 24.1719 377.261 24.4062 376.534C24.6465 375.802 24.9893 375.175 25.4346 374.653C25.8857 374.132 26.4277 373.73 27.0605 373.449C27.6934 373.168 28.4053 373.027 29.1963 373.027C30.1631 373.027 30.9805 373.209 31.6484 373.572C32.3164 373.936 32.835 374.439 33.2041 375.084C33.5791 375.723 33.8105 376.464 33.8984 377.308H32.2109C32.1289 376.71 31.9766 376.197 31.7539 375.77C31.5312 375.336 31.2148 375.002 30.8047 374.768C30.3945 374.533 29.8584 374.416 29.1963 374.416C28.6279 374.416 28.127 374.524 27.6934 374.741C27.2656 374.958 26.9053 375.266 26.6123 375.664C26.3252 376.062 26.1084 376.54 25.9619 377.097C25.8154 377.653 25.7422 378.271 25.7422 378.951V380.243C25.7422 380.87 25.8066 381.459 25.9355 382.01C26.0703 382.561 26.2725 383.044 26.542 383.46C26.8115 383.876 27.1543 384.204 27.5703 384.444C27.9863 384.679 28.4785 384.796 29.0469 384.796C29.7676 384.796 30.3418 384.682 30.7695 384.453C31.1973 384.225 31.5195 383.896 31.7363 383.469C31.959 383.041 32.1172 382.528 32.2109 381.931ZM44.0712 373.203H45.7587V381.86C45.7587 382.821 45.5449 383.621 45.1171 384.26C44.6894 384.898 44.1211 385.379 43.4121 385.701C42.7089 386.018 41.9443 386.176 41.1181 386.176C40.2509 386.176 39.4658 386.018 38.7627 385.701C38.0654 385.379 37.5117 384.898 37.1015 384.26C36.6972 383.621 36.4951 382.821 36.4951 381.86V373.203H38.1738V381.86C38.1738 382.528 38.2968 383.079 38.5429 383.513C38.789 383.946 39.1318 384.269 39.5712 384.479C40.0166 384.69 40.5322 384.796 41.1181 384.796C41.7099 384.796 42.2255 384.69 42.665 384.479C43.1103 384.269 43.456 383.946 43.7021 383.513C43.9482 383.079 44.0712 382.528 44.0712 381.86V373.203ZM55.7821 382.766C55.7821 382.467 55.7353 382.203 55.6415 381.975C55.5536 381.74 55.3954 381.529 55.1669 381.342C54.9443 381.154 54.6337 380.976 54.2353 380.806C53.8427 380.636 53.3446 380.463 52.7411 380.287C52.1083 380.1 51.537 379.892 51.0273 379.663C50.5175 379.429 50.081 379.162 49.7177 378.863C49.3544 378.564 49.0761 378.222 48.8827 377.835C48.6894 377.448 48.5927 377.006 48.5927 376.508C48.5927 376.01 48.6952 375.55 48.9003 375.128C49.1054 374.706 49.3984 374.34 49.7792 374.029C50.1659 373.713 50.6259 373.467 51.1591 373.291C51.6923 373.115 52.287 373.027 52.9433 373.027C53.9042 373.027 54.7187 373.212 55.3866 373.581C56.0605 373.944 56.5732 374.422 56.9247 375.014C57.2763 375.6 57.4521 376.227 57.4521 376.895H55.7646C55.7646 376.414 55.662 375.989 55.457 375.62C55.2519 375.245 54.9413 374.952 54.5253 374.741C54.1093 374.524 53.582 374.416 52.9433 374.416C52.3398 374.416 51.8417 374.507 51.4491 374.688C51.0566 374.87 50.7636 375.116 50.5702 375.427C50.3827 375.737 50.289 376.092 50.289 376.49C50.289 376.76 50.3446 377.006 50.456 377.229C50.5732 377.445 50.7519 377.647 50.9921 377.835C51.2382 378.022 51.5487 378.195 51.9237 378.354C52.3046 378.512 52.7587 378.664 53.2861 378.811C54.0126 379.016 54.6396 379.244 55.1669 379.496C55.6943 379.748 56.1279 380.032 56.4677 380.349C56.8134 380.659 57.0683 381.014 57.2323 381.412C57.4023 381.805 57.4872 382.25 57.4872 382.748C57.4872 383.27 57.3818 383.741 57.1708 384.163C56.9599 384.585 56.6581 384.945 56.2655 385.244C55.873 385.543 55.4013 385.774 54.8505 385.938C54.3056 386.097 53.6962 386.176 53.0224 386.176C52.4306 386.176 51.8476 386.094 51.2734 385.93C50.705 385.766 50.1864 385.52 49.7177 385.191C49.2548 384.863 48.8827 384.459 48.6015 383.979C48.3261 383.492 48.1884 382.93 48.1884 382.291H49.8759C49.8759 382.73 49.9609 383.108 50.1308 383.425C50.3007 383.735 50.5321 383.993 50.8251 384.198C51.1239 384.403 51.4609 384.556 51.8359 384.655C52.2167 384.749 52.6122 384.796 53.0224 384.796C53.6142 384.796 54.1152 384.714 54.5253 384.55C54.9355 384.386 55.246 384.151 55.457 383.847C55.6737 383.542 55.7821 383.182 55.7821 382.766ZM64.9179 373.203V386H63.2479V373.203H64.9179ZM69.0311 373.203V374.592H59.1434V373.203H69.0311ZM81.076 379.197V380.006C81.076 380.967 80.9559 381.828 80.7157 382.59C80.4754 383.352 80.1297 383.999 79.6786 384.532C79.2274 385.065 78.6854 385.473 78.0526 385.754C77.4256 386.035 76.7225 386.176 75.9432 386.176C75.1873 386.176 74.493 386.035 73.8602 385.754C73.2332 385.473 72.6883 385.065 72.2254 384.532C71.7684 383.999 71.4139 383.352 71.162 382.59C70.91 381.828 70.784 380.967 70.784 380.006V379.197C70.784 378.236 70.9071 377.378 71.1532 376.622C71.4051 375.86 71.7596 375.213 72.2166 374.68C72.6737 374.141 73.2157 373.73 73.8426 373.449C74.4754 373.168 75.1698 373.027 75.9256 373.027C76.7049 373.027 77.408 373.168 78.035 373.449C78.6678 373.73 79.2098 374.141 79.661 374.68C80.118 375.213 80.4666 375.86 80.7069 376.622C80.953 377.378 81.076 378.236 81.076 379.197ZM79.3973 380.006V379.18C79.3973 378.418 79.3182 377.744 79.16 377.158C79.0077 376.572 78.7821 376.08 78.4832 375.682C78.1844 375.283 77.8182 374.981 77.3846 374.776C76.9569 374.571 76.4705 374.469 75.9256 374.469C75.3983 374.469 74.9207 374.571 74.493 374.776C74.0711 374.981 73.7079 375.283 73.4032 375.682C73.1043 376.08 72.8729 376.572 72.7088 377.158C72.5448 377.744 72.4627 378.418 72.4627 379.18V380.006C72.4627 380.773 72.5448 381.453 72.7088 382.045C72.8729 382.631 73.1073 383.126 73.412 383.53C73.7225 383.929 74.0887 384.23 74.5106 384.436C74.9383 384.641 75.4159 384.743 75.9432 384.743C76.494 384.743 76.9832 384.641 77.411 384.436C77.8387 384.23 78.1991 383.929 78.492 383.53C78.7909 383.126 79.0164 382.631 79.1688 382.045C79.3211 381.453 79.3973 380.773 79.3973 380.006ZM84.6922 373.203H86.3357L90.5281 383.636L94.7117 373.203H96.3641L91.1609 386H89.8777L84.6922 373.203ZM84.1561 373.203H85.6063L85.8436 381.008V386H84.1561V373.203ZM95.4412 373.203H96.8914V386H95.2039V381.008L95.4412 373.203ZM108.541 384.62V386H101.764V384.62H108.541ZM102.107 373.203V386H100.411V373.203H102.107ZM107.644 378.705V380.085H101.764V378.705H107.644ZM108.453 373.203V374.592H101.764V373.203H108.453ZM111.181 373.203H115.418C116.379 373.203 117.19 373.35 117.852 373.643C118.52 373.936 119.027 374.369 119.373 374.943C119.724 375.512 119.9 376.212 119.9 377.044C119.9 377.63 119.78 378.166 119.54 378.652C119.305 379.133 118.966 379.543 118.52 379.883C118.081 380.217 117.553 380.466 116.938 380.63L116.464 380.814H112.482L112.465 379.435H115.47C116.08 379.435 116.587 379.329 116.991 379.118C117.395 378.901 117.7 378.611 117.905 378.248C118.11 377.885 118.213 377.483 118.213 377.044C118.213 376.552 118.116 376.121 117.923 375.752C117.729 375.383 117.425 375.099 117.009 374.899C116.598 374.694 116.068 374.592 115.418 374.592H112.878V386H111.181V373.203ZM118.661 386L115.55 380.199L117.316 380.19L120.471 385.895V386H118.661ZM129.633 382.766C129.633 382.467 129.587 382.203 129.493 381.975C129.405 381.74 129.247 381.529 129.018 381.342C128.796 381.154 128.485 380.976 128.087 380.806C127.694 380.636 127.196 380.463 126.592 380.287C125.96 380.1 125.388 379.892 124.879 379.663C124.369 379.429 123.932 379.162 123.569 378.863C123.206 378.564 122.927 378.222 122.734 377.835C122.541 377.448 122.444 377.006 122.444 376.508C122.444 376.01 122.547 375.55 122.752 375.128C122.957 374.706 123.25 374.34 123.631 374.029C124.017 373.713 124.477 373.467 125.01 373.291C125.544 373.115 126.138 373.027 126.795 373.027C127.756 373.027 128.57 373.212 129.238 373.581C129.912 373.944 130.424 374.422 130.776 375.014C131.128 375.6 131.303 376.227 131.303 376.895H129.616C129.616 376.414 129.513 375.989 129.308 375.62C129.103 375.245 128.793 374.952 128.377 374.741C127.961 374.524 127.433 374.416 126.795 374.416C126.191 374.416 125.693 374.507 125.3 374.688C124.908 374.87 124.615 375.116 124.422 375.427C124.234 375.737 124.14 376.092 124.14 376.49C124.14 376.76 124.196 377.006 124.307 377.229C124.424 377.445 124.603 377.647 124.843 377.835C125.09 378.022 125.4 378.195 125.775 378.354C126.156 378.512 126.61 378.664 127.137 378.811C127.864 379.016 128.491 379.244 129.018 379.496C129.546 379.748 129.979 380.032 130.319 380.349C130.665 380.659 130.92 381.014 131.084 381.412C131.254 381.805 131.339 382.25 131.339 382.748C131.339 383.27 131.233 383.741 131.022 384.163C130.811 384.585 130.509 384.945 130.117 385.244C129.724 385.543 129.253 385.774 128.702 385.938C128.157 386.097 127.548 386.176 126.874 386.176C126.282 386.176 125.699 386.094 125.125 385.93C124.556 385.766 124.038 385.52 123.569 385.191C123.106 384.863 122.734 384.459 122.453 383.979C122.177 383.492 122.04 382.93 122.04 382.291H123.727C123.727 382.73 123.812 383.108 123.982 383.425C124.152 383.735 124.383 383.993 124.676 384.198C124.975 384.403 125.312 384.556 125.687 384.655C126.068 384.749 126.464 384.796 126.874 384.796C127.466 384.796 127.966 384.714 128.377 384.55C128.787 384.386 129.097 384.151 129.308 383.847C129.525 383.542 129.633 383.182 129.633 382.766ZM146.806 384.62V386H140.408V384.62H146.806ZM140.742 373.203V386H139.046V373.203H140.742ZM158.561 379.197V380.006C158.561 380.967 158.441 381.828 158.201 382.59C157.961 383.352 157.615 383.999 157.164 384.532C156.712 385.065 156.17 385.473 155.538 385.754C154.911 386.035 154.208 386.176 153.428 386.176C152.672 386.176 151.978 386.035 151.345 385.754C150.718 385.473 150.173 385.065 149.711 384.532C149.253 383.999 148.899 383.352 148.647 382.59C148.395 381.828 148.269 380.967 148.269 380.006V379.197C148.269 378.236 148.392 377.378 148.638 376.622C148.89 375.86 149.245 375.213 149.702 374.68C150.159 374.141 150.701 373.73 151.328 373.449C151.961 373.168 152.655 373.027 153.411 373.027C154.19 373.027 154.893 373.168 155.52 373.449C156.153 373.73 156.695 374.141 157.146 374.68C157.603 375.213 157.952 375.86 158.192 376.622C158.438 377.378 158.561 378.236 158.561 379.197ZM156.882 380.006V379.18C156.882 378.418 156.803 377.744 156.645 377.158C156.493 376.572 156.267 376.08 155.968 375.682C155.669 375.283 155.303 374.981 154.87 374.776C154.442 374.571 153.956 374.469 153.411 374.469C152.883 374.469 152.406 374.571 151.978 374.776C151.556 374.981 151.193 375.283 150.888 375.682C150.589 376.08 150.358 376.572 150.194 377.158C150.03 377.744 149.948 378.418 149.948 379.18V380.006C149.948 380.773 150.03 381.453 150.194 382.045C150.358 382.631 150.592 383.126 150.897 383.53C151.208 383.929 151.574 384.23 151.996 384.436C152.423 384.641 152.901 384.743 153.428 384.743C153.979 384.743 154.468 384.641 154.896 384.436C155.324 384.23 155.684 383.929 155.977 383.53C156.276 383.126 156.502 382.631 156.654 382.045C156.806 381.453 156.882 380.773 156.882 380.006ZM165.579 384.058L169.349 373.203H171.186L166.449 386H165.139L165.579 384.058ZM162.054 373.203L165.79 384.058L166.255 386H164.946L160.217 373.203H162.054ZM181.579 384.62V386H174.802V384.62H181.579ZM175.145 373.203V386H173.449V373.203H175.145ZM180.682 378.705V380.085H174.802V378.705H180.682ZM181.491 373.203V374.592H174.802V373.203H181.491ZM185.45 384.066V385.376C185.45 385.909 185.315 386.472 185.045 387.063C184.776 387.661 184.398 388.159 183.912 388.558L182.989 387.916C183.176 387.658 183.334 387.395 183.463 387.125C183.592 386.861 183.689 386.586 183.753 386.299C183.824 386.018 183.859 385.719 183.859 385.402V384.066H185.45ZM201.076 384.62V386H194.677V384.62H201.076ZM195.011 373.203V386H193.315V373.203H195.011ZM211.688 384.62V386H204.911V384.62H211.688ZM205.254 373.203V386H203.558V373.203H205.254ZM210.791 378.705V380.085H204.911V378.705H210.791ZM211.6 373.203V374.592H204.911V373.203H211.6ZM219.233 373.203V386H217.563V373.203H219.233ZM223.346 373.203V374.592H213.458V373.203H223.346ZM25.0742 393.203L28.3965 399.628L31.7275 393.203H33.6523L29.2402 401.219V406H27.5439V401.219L23.1318 393.203H25.0742ZM45.4248 399.197V400.006C45.4248 400.967 45.3046 401.828 45.0644 402.59C44.8242 403.352 44.4785 403.999 44.0273 404.532C43.5761 405.065 43.0341 405.473 42.4013 405.754C41.7744 406.035 41.0712 406.176 40.292 406.176C39.5361 406.176 38.8418 406.035 38.2089 405.754C37.582 405.473 37.0371 405.065 36.5742 404.532C36.1171 403.999 35.7627 403.352 35.5107 402.59C35.2587 401.828 35.1328 400.967 35.1328 400.006V399.197C35.1328 398.236 35.2558 397.378 35.5019 396.622C35.7539 395.86 36.1084 395.213 36.5654 394.68C37.0224 394.141 37.5644 393.73 38.1914 393.449C38.8242 393.168 39.5185 393.027 40.2744 393.027C41.0537 393.027 41.7568 393.168 42.3837 393.449C43.0166 393.73 43.5586 394.141 44.0097 394.68C44.4668 395.213 44.8154 395.86 45.0556 396.622C45.3017 397.378 45.4248 398.236 45.4248 399.197ZM43.7461 400.006V399.18C43.7461 398.418 43.667 397.744 43.5087 397.158C43.3564 396.572 43.1308 396.08 42.832 395.682C42.5332 395.283 42.167 394.981 41.7334 394.776C41.3056 394.571 40.8193 394.469 40.2744 394.469C39.747 394.469 39.2695 394.571 38.8418 394.776C38.4199 394.981 38.0566 395.283 37.7519 395.682C37.4531 396.08 37.2216 396.572 37.0576 397.158C36.8935 397.744 36.8115 398.418 36.8115 399.18V400.006C36.8115 400.773 36.8935 401.453 37.0576 402.045C37.2216 402.631 37.456 403.126 37.7607 403.53C38.0712 403.929 38.4375 404.23 38.8593 404.436C39.2871 404.641 39.7646 404.743 40.292 404.743C40.8427 404.743 41.332 404.641 41.7597 404.436C42.1875 404.23 42.5478 403.929 42.8408 403.53C43.1396 403.126 43.3652 402.631 43.5175 402.045C43.6699 401.453 43.7461 400.773 43.7461 400.006ZM55.8261 393.203H57.5136V401.86C57.5136 402.821 57.2997 403.621 56.872 404.26C56.4443 404.898 55.8759 405.379 55.1669 405.701C54.4638 406.018 53.6991 406.176 52.873 406.176C52.0058 406.176 51.2206 406.018 50.5175 405.701C49.8202 405.379 49.2665 404.898 48.8564 404.26C48.4521 403.621 48.2499 402.821 48.2499 401.86V393.203H49.9286V401.86C49.9286 402.528 50.0517 403.079 50.2978 403.513C50.5439 403.946 50.8866 404.269 51.3261 404.479C51.7714 404.69 52.287 404.796 52.873 404.796C53.4648 404.796 53.9804 404.69 54.4198 404.479C54.8652 404.269 55.2109 403.946 55.457 403.513C55.703 403.079 55.8261 402.528 55.8261 401.86V393.203ZM60.7167 393.203H64.953C65.9139 393.203 66.7255 393.35 67.3876 393.643C68.0555 393.936 68.5624 394.369 68.9081 394.943C69.2596 395.512 69.4354 396.212 69.4354 397.044C69.4354 397.63 69.3153 398.166 69.0751 398.652C68.8407 399.133 68.5009 399.543 68.0555 399.883C67.6161 400.217 67.0887 400.466 66.4735 400.63L65.9989 400.814H62.0175L61.9999 399.435H65.0057C65.6151 399.435 66.122 399.329 66.5262 399.118C66.9305 398.901 67.2352 398.611 67.4403 398.248C67.6454 397.885 67.7479 397.483 67.7479 397.044C67.7479 396.552 67.6512 396.121 67.4579 395.752C67.2645 395.383 66.9598 395.099 66.5438 394.899C66.1337 394.694 65.6034 394.592 64.953 394.592H62.413V406H60.7167V393.203ZM68.1962 406L65.0848 400.199L66.8514 400.19L70.0067 405.895V406H68.1962ZM81.9148 400.015H78.6717L78.6541 398.652H81.5984C82.0848 398.652 82.5096 398.57 82.8729 398.406C83.2361 398.242 83.5174 398.008 83.7166 397.703C83.9217 397.393 84.0242 397.023 84.0242 396.596C84.0242 396.127 83.9334 395.746 83.7518 395.453C83.576 395.154 83.3035 394.938 82.9344 394.803C82.5711 394.662 82.1082 394.592 81.5457 394.592H79.0496V406H77.3533V393.203H81.5457C82.202 393.203 82.7879 393.271 83.3035 393.405C83.8191 393.534 84.2557 393.739 84.6131 394.021C84.9764 394.296 85.2518 394.647 85.4393 395.075C85.6268 395.503 85.7205 396.016 85.7205 396.613C85.7205 397.141 85.5857 397.618 85.3162 398.046C85.0467 398.468 84.6717 398.813 84.1912 399.083C83.7166 399.353 83.16 399.525 82.5213 399.602L81.9148 400.015ZM81.8357 406H78.0037L78.9617 404.62H81.8357C82.3748 404.62 82.8318 404.526 83.2068 404.339C83.5877 404.151 83.8777 403.888 84.077 403.548C84.2762 403.202 84.3758 402.795 84.3758 402.326C84.3758 401.852 84.2908 401.441 84.1209 401.096C83.951 400.75 83.6844 400.483 83.3211 400.296C82.9578 400.108 82.4891 400.015 81.9148 400.015H79.4979L79.5154 398.652H82.8201L83.1805 399.145C83.7957 399.197 84.3172 399.373 84.7449 399.672C85.1727 399.965 85.4979 400.34 85.7205 400.797C85.949 401.254 86.0633 401.758 86.0633 402.309C86.0633 403.105 85.8875 403.779 85.5359 404.33C85.1902 404.875 84.701 405.291 84.0682 405.578C83.4354 405.859 82.6912 406 81.8357 406ZM89.1082 393.203H93.3445C94.3054 393.203 95.117 393.35 95.7791 393.643C96.447 393.936 96.9539 394.369 97.2996 394.943C97.6511 395.512 97.8269 396.212 97.8269 397.044C97.8269 397.63 97.7068 398.166 97.4666 398.652C97.2322 399.133 96.8923 399.543 96.447 399.883C96.0076 400.217 95.4802 400.466 94.865 400.63L94.3904 400.814H90.4089L90.3914 399.435H93.3972C94.0066 399.435 94.5134 399.329 94.9177 399.118C95.322 398.901 95.6267 398.611 95.8318 398.248C96.0369 397.885 96.1394 397.483 96.1394 397.044C96.1394 396.552 96.0427 396.121 95.8494 395.752C95.656 395.383 95.3513 395.099 94.9353 394.899C94.5252 394.694 93.9949 394.592 93.3445 394.592H90.8045V406H89.1082V393.203ZM96.5877 406L93.4763 400.199L95.2429 400.19L98.3982 405.895V406H96.5877ZM105.477 394.337L101.241 406H99.5095L104.387 393.203H105.504L105.477 394.337ZM109.028 406L104.783 394.337L104.757 393.203H105.873L110.768 406H109.028ZM108.808 401.263V402.651H101.619V401.263H108.808ZM122.866 393.203V406H121.161L114.718 396.13V406H113.022V393.203H114.718L121.187 403.1V393.203H122.866ZM129.875 406H127.203L127.22 404.62H129.875C130.789 404.62 131.55 404.43 132.16 404.049C132.769 403.662 133.226 403.123 133.531 402.432C133.841 401.734 133.997 400.92 133.997 399.988V399.206C133.997 398.474 133.909 397.823 133.733 397.255C133.557 396.681 133.299 396.197 132.96 395.805C132.62 395.406 132.204 395.104 131.712 394.899C131.225 394.694 130.666 394.592 130.033 394.592H127.15V393.203H130.033C130.871 393.203 131.635 393.344 132.327 393.625C133.018 393.9 133.613 394.302 134.111 394.829C134.615 395.351 135.002 395.983 135.271 396.728C135.541 397.466 135.675 398.298 135.675 399.224V399.988C135.675 400.914 135.541 401.749 135.271 402.493C135.002 403.231 134.612 403.861 134.102 404.383C133.598 404.904 132.989 405.306 132.274 405.587C131.565 405.862 130.765 406 129.875 406ZM128.108 393.203V406H126.412V393.203H128.108ZM150.589 402.766C150.589 402.467 150.543 402.203 150.449 401.975C150.361 401.74 150.203 401.529 149.974 401.342C149.752 401.154 149.441 400.976 149.043 400.806C148.65 400.636 148.152 400.463 147.548 400.287C146.916 400.1 146.344 399.892 145.835 399.663C145.325 399.429 144.888 399.162 144.525 398.863C144.162 398.564 143.883 398.222 143.69 397.835C143.497 397.448 143.4 397.006 143.4 396.508C143.4 396.01 143.503 395.55 143.708 395.128C143.913 394.706 144.206 394.34 144.586 394.029C144.973 393.713 145.433 393.467 145.966 393.291C146.5 393.115 147.094 393.027 147.751 393.027C148.711 393.027 149.526 393.212 150.194 393.581C150.868 393.944 151.38 394.422 151.732 395.014C152.084 395.6 152.259 396.227 152.259 396.895H150.572C150.572 396.414 150.469 395.989 150.264 395.62C150.059 395.245 149.749 394.952 149.333 394.741C148.917 394.524 148.389 394.416 147.751 394.416C147.147 394.416 146.649 394.507 146.256 394.688C145.864 394.87 145.571 395.116 145.378 395.427C145.19 395.737 145.096 396.092 145.096 396.49C145.096 396.76 145.152 397.006 145.263 397.229C145.38 397.445 145.559 397.647 145.799 397.835C146.045 398.022 146.356 398.195 146.731 398.354C147.112 398.512 147.566 398.664 148.093 398.811C148.82 399.016 149.447 399.244 149.974 399.496C150.502 399.748 150.935 400.032 151.275 400.349C151.621 400.659 151.876 401.014 152.04 401.412C152.21 401.805 152.294 402.25 152.294 402.748C152.294 403.27 152.189 403.741 151.978 404.163C151.767 404.585 151.465 404.945 151.073 405.244C150.68 405.543 150.209 405.774 149.658 405.938C149.113 406.097 148.503 406.176 147.83 406.176C147.238 406.176 146.655 406.094 146.081 405.93C145.512 405.766 144.994 405.52 144.525 405.191C144.062 404.863 143.69 404.459 143.409 403.979C143.133 403.492 142.996 402.93 142.996 402.291H144.683C144.683 402.73 144.768 403.108 144.938 403.425C145.108 403.735 145.339 403.993 145.632 404.198C145.931 404.403 146.268 404.556 146.643 404.655C147.024 404.749 147.419 404.796 147.83 404.796C148.421 404.796 148.922 404.714 149.333 404.55C149.743 404.386 150.053 404.151 150.264 403.847C150.481 403.542 150.589 403.182 150.589 402.766ZM163.355 398.705V400.085H156.429V398.705H163.355ZM156.693 393.203V406H154.997V393.203H156.693ZM164.832 393.203V406H163.144V393.203H164.832ZM178.239 399.197V400.006C178.239 400.967 178.119 401.828 177.878 402.59C177.638 403.352 177.292 403.999 176.841 404.532C176.39 405.065 175.848 405.473 175.215 405.754C174.588 406.035 173.885 406.176 173.106 406.176C172.35 406.176 171.656 406.035 171.023 405.754C170.396 405.473 169.851 405.065 169.388 404.532C168.931 403.999 168.577 403.352 168.325 402.59C168.073 401.828 167.947 400.967 167.947 400.006V399.197C167.947 398.236 168.07 397.378 168.316 396.622C168.568 395.86 168.922 395.213 169.379 394.68C169.836 394.141 170.378 393.73 171.005 393.449C171.638 393.168 172.333 393.027 173.088 393.027C173.868 393.027 174.571 393.168 175.198 393.449C175.831 393.73 176.373 394.141 176.824 394.68C177.281 395.213 177.629 395.86 177.87 396.622C178.116 397.378 178.239 398.236 178.239 399.197ZM176.56 400.006V399.18C176.56 398.418 176.481 397.744 176.323 397.158C176.17 396.572 175.945 396.08 175.646 395.682C175.347 395.283 174.981 394.981 174.547 394.776C174.12 394.571 173.633 394.469 173.088 394.469C172.561 394.469 172.083 394.571 171.656 394.776C171.234 394.981 170.871 395.283 170.566 395.682C170.267 396.08 170.036 396.572 169.872 397.158C169.708 397.744 169.625 398.418 169.625 399.18V400.006C169.625 400.773 169.708 401.453 169.872 402.045C170.036 402.631 170.27 403.126 170.575 403.53C170.885 403.929 171.251 404.23 171.673 404.436C172.101 404.641 172.579 404.743 173.106 404.743C173.657 404.743 174.146 404.641 174.574 404.436C175.001 404.23 175.362 403.929 175.655 403.53C175.954 403.126 176.179 402.631 176.332 402.045C176.484 401.453 176.56 400.773 176.56 400.006ZM184.685 402.133L187.225 393.203H188.456L187.744 396.675L185.01 406H183.789L184.685 402.133ZM182.057 393.203L184.079 401.957L184.685 406H183.472L180.37 393.203H182.057ZM191.743 401.948L193.72 393.203H195.416L192.323 406H191.11L191.743 401.948ZM188.64 393.203L191.11 402.133L192.006 406H190.785L188.148 396.675L187.427 393.203H188.64ZM204.658 402.766C204.658 402.467 204.611 402.203 204.517 401.975C204.429 401.74 204.271 401.529 204.042 401.342C203.82 401.154 203.509 400.976 203.111 400.806C202.718 400.636 202.22 400.463 201.617 400.287C200.984 400.1 200.413 399.892 199.903 399.663C199.393 399.429 198.956 399.162 198.593 398.863C198.23 398.564 197.952 398.222 197.758 397.835C197.565 397.448 197.468 397.006 197.468 396.508C197.468 396.01 197.571 395.55 197.776 395.128C197.981 394.706 198.274 394.34 198.655 394.029C199.041 393.713 199.501 393.467 200.035 393.291C200.568 393.115 201.163 393.027 201.819 393.027C202.78 393.027 203.594 393.212 204.262 393.581C204.936 393.944 205.449 394.422 205.8 395.014C206.152 395.6 206.328 396.227 206.328 396.895H204.64C204.64 396.414 204.538 395.989 204.332 395.62C204.127 395.245 203.817 394.952 203.401 394.741C202.985 394.524 202.457 394.416 201.819 394.416C201.215 394.416 200.717 394.507 200.325 394.688C199.932 394.87 199.639 395.116 199.446 395.427C199.258 395.737 199.164 396.092 199.164 396.49C199.164 396.76 199.22 397.006 199.331 397.229C199.449 397.445 199.627 397.647 199.868 397.835C200.114 398.022 200.424 398.195 200.799 398.354C201.18 398.512 201.634 398.664 202.162 398.811C202.888 399.016 203.515 399.244 204.042 399.496C204.57 399.748 205.003 400.032 205.343 400.349C205.689 400.659 205.944 401.014 206.108 401.412C206.278 401.805 206.363 402.25 206.363 402.748C206.363 403.27 206.257 403.741 206.046 404.163C205.835 404.585 205.534 404.945 205.141 405.244C204.748 405.543 204.277 405.774 203.726 405.938C203.181 406.097 202.572 406.176 201.898 406.176C201.306 406.176 200.723 406.094 200.149 405.93C199.58 405.766 199.062 405.52 198.593 405.191C198.13 404.863 197.758 404.459 197.477 403.979C197.202 403.492 197.064 402.93 197.064 402.291H198.751C198.751 402.73 198.836 403.108 199.006 403.425C199.176 403.735 199.408 403.993 199.701 404.198C199.999 404.403 200.336 404.556 200.711 404.655C201.092 404.749 201.488 404.796 201.898 404.796C202.49 404.796 202.991 404.714 203.401 404.55C203.811 404.386 204.121 404.151 204.332 403.847C204.549 403.542 204.658 403.182 204.658 402.766ZM31.0508 424.532L34.3027 427.107L33.1602 428.162L29.9609 425.622L31.0508 424.532ZM34.2588 419.197V420.006C34.2588 420.967 34.1387 421.828 33.8984 422.59C33.6582 423.352 33.3125 423.999 32.8613 424.532C32.4102 425.065 31.8682 425.473 31.2354 425.754C30.6084 426.035 29.9053 426.176 29.126 426.176C28.3701 426.176 27.6758 426.035 27.043 425.754C26.416 425.473 25.8711 425.065 25.4082 424.532C24.9512 423.999 24.5967 423.352 24.3447 422.59C24.0928 421.828 23.9668 420.967 23.9668 420.006V419.197C23.9668 418.236 24.0898 417.378 24.3359 416.622C24.5879 415.86 24.9424 415.213 25.3994 414.68C25.8564 414.141 26.3984 413.73 27.0254 413.449C27.6582 413.168 28.3525 413.027 29.1084 413.027C29.8877 413.027 30.5938 413.168 31.2266 413.449C31.8594 413.73 32.4014 414.141 32.8525 414.68C33.3037 415.213 33.6494 415.86 33.8896 416.622C34.1357 417.378 34.2588 418.236 34.2588 419.197ZM32.5801 420.006V419.18C32.5801 418.418 32.501 417.744 32.3428 417.158C32.1904 416.572 31.9648 416.08 31.666 415.682C31.3672 415.283 31.0039 414.981 30.5762 414.776C30.1484 414.571 29.6592 414.469 29.1084 414.469C28.5869 414.469 28.1123 414.571 27.6846 414.776C27.2627 414.981 26.8994 415.283 26.5947 415.682C26.29 416.08 26.0557 416.572 25.8916 417.158C25.7275 417.744 25.6455 418.418 25.6455 419.18V420.006C25.6455 420.773 25.7275 421.453 25.8916 422.045C26.0557 422.631 26.29 423.126 26.5947 423.53C26.9053 423.929 27.2744 424.23 27.7021 424.436C28.1299 424.641 28.6045 424.743 29.126 424.743C29.6768 424.743 30.166 424.641 30.5938 424.436C31.0215 424.23 31.3818 423.929 31.6748 423.53C31.9736 423.126 32.1992 422.631 32.3516 422.045C32.5039 421.453 32.5801 420.773 32.5801 420.006ZM44.7392 413.203H46.4267V421.86C46.4267 422.821 46.2129 423.621 45.7851 424.26C45.3574 424.898 44.789 425.379 44.08 425.701C43.3769 426.018 42.6123 426.176 41.7861 426.176C40.9189 426.176 40.1337 426.018 39.4306 425.701C38.7334 425.379 38.1796 424.898 37.7695 424.26C37.3652 423.621 37.163 422.821 37.163 421.86V413.203H38.8418V421.86C38.8418 422.528 38.9648 423.079 39.2109 423.513C39.457 423.946 39.7998 424.269 40.2392 424.479C40.6845 424.69 41.2002 424.796 41.7861 424.796C42.3779 424.796 42.8935 424.69 43.333 424.479C43.7783 424.269 44.124 423.946 44.3701 423.513C44.6162 423.079 44.7392 422.528 44.7392 421.86V413.203ZM54.1737 414.337L49.9374 426H48.206L53.0839 413.203H54.2001L54.1737 414.337ZM57.7245 426L53.4794 414.337L53.453 413.203H54.5693L59.4648 426H57.7245ZM57.5048 421.263V422.651H50.3154V421.263H57.5048ZM69.4794 424.62V426H63.0809V424.62H69.4794ZM63.4149 413.203V426H61.7186V413.203H63.4149ZM73.7811 413.203V426H72.0848V413.203H73.7811ZM81.8709 413.203V426H80.201V413.203H81.8709ZM85.9842 413.203V414.592H76.0965V413.203H85.9842ZM89.1521 413.203L92.4744 419.628L95.8054 413.203H97.7302L93.3181 421.219V426H91.6218V421.219L87.2097 413.203H89.1521ZM97.8308 425.139C97.8308 424.863 97.9157 424.632 98.0857 424.444C98.2614 424.251 98.5134 424.154 98.8415 424.154C99.1696 424.154 99.4187 424.251 99.5886 424.444C99.7644 424.632 99.8523 424.863 99.8523 425.139C99.8523 425.408 99.7644 425.637 99.5886 425.824C99.4187 426.012 99.1696 426.105 98.8415 426.105C98.5134 426.105 98.2614 426.012 98.0857 425.824C97.9157 425.637 97.8308 425.408 97.8308 425.139Z" fill="#A5886E"/>
</svg>
